{
	"patcher" : 	{
		"fileversion" : 1,
		"appversion" : 		{
			"major" : 8,
			"minor" : 5,
			"revision" : 4,
			"architecture" : "x64",
			"modernui" : 1
		}
,
		"classnamespace" : "box",
		"rect" : [ 34.0, 79.0, 1212.0, 687.0 ],
		"bglocked" : 0,
		"openinpresentation" : 1,
		"default_fontsize" : 12.0,
		"default_fontface" : 0,
		"default_fontname" : "Arial",
		"gridonopen" : 1,
		"gridsize" : [ 15.0, 15.0 ],
		"gridsnaponopen" : 1,
		"objectsnaponopen" : 1,
		"statusbarvisible" : 2,
		"toolbarvisible" : 1,
		"lefttoolbarpinned" : 0,
		"toptoolbarpinned" : 0,
		"righttoolbarpinned" : 0,
		"bottomtoolbarpinned" : 0,
		"toolbars_unpinned_last_save" : 0,
		"tallnewobj" : 0,
		"boxanimatetime" : 200,
		"enablehscroll" : 1,
		"enablevscroll" : 1,
		"devicewidth" : 0.0,
		"description" : "",
		"digest" : "",
		"tags" : "",
		"style" : "",
		"subpatcher_template" : "",
		"assistshowspatchername" : 0,
		"boxes" : [ 			{
				"box" : 				{
					"id" : "obj-23",
					"maxclass" : "message",
					"numinlets" : 2,
					"numoutlets" : 1,
					"outlettype" : [ "" ],
					"patching_rect" : [ 40.0, 176.0, 47.0, 22.0 ],
					"text" : "clearall"
				}

			}
, 			{
				"box" : 				{
					"fontname" : "Arial Bold",
					"fontsize" : 10.0,
					"id" : "obj-21",
					"maxclass" : "comment",
					"numinlets" : 1,
					"numoutlets" : 0,
					"patching_rect" : [ 496.0, 448.0, 54.0, 18.0 ],
					"text" : "See also:"
				}

			}
, 			{
				"box" : 				{
					"fontname" : "Arial Bold",
					"fontsize" : 10.0,
					"hidden" : 1,
					"id" : "obj-16",
					"maxclass" : "newobj",
					"numinlets" : 1,
					"numoutlets" : 1,
					"outlettype" : [ "" ],
					"patching_rect" : [ 512.0, 518.0, 50.0, 20.0 ],
					"text" : "pcontrol"
				}

			}
, 			{
				"box" : 				{
					"fontname" : "Arial Bold",
					"fontsize" : 10.0,
					"hidden" : 1,
					"id" : "obj-9",
					"maxclass" : "message",
					"numinlets" : 2,
					"numoutlets" : 1,
					"outlettype" : [ "" ],
					"patching_rect" : [ 512.0, 497.0, 45.0, 20.0 ],
					"text" : "help $1"
				}

			}
, 			{
				"box" : 				{
					"allowdrag" : 0,
					"fontname" : "Arial Bold",
					"fontsize" : 10.0,
					"id" : "obj-11",
					"items" : [ "omx.4band~", ",", "omx.5band~", ",", "omx.peaklim~" ],
					"maxclass" : "umenu",
					"numinlets" : 1,
					"numoutlets" : 3,
					"outlettype" : [ "int", "", "" ],
					"parameter_enable" : 0,
					"patching_rect" : [ 480.0, 467.0, 83.0, 20.0 ]
				}

			}
, 			{
				"box" : 				{
					"angle" : 0.0,
					"bgcolor" : [ 0.094118, 0.113725, 0.137255, 0.0 ],
					"border" : 1,
					"id" : "obj-18",
					"maxclass" : "panel",
					"mode" : 0,
					"numinlets" : 1,
					"numoutlets" : 0,
					"patching_rect" : [ 474.0, 446.0, 95.0, 48.0 ],
					"rounded" : 16
				}

			}
, 			{
				"box" : 				{
					"fontname" : "Arial Bold Italic",
					"fontsize" : 11.0,
					"id" : "obj-34",
					"maxclass" : "comment",
					"numinlets" : 1,
					"numoutlets" : 0,
					"patching_rect" : [ 128.0, 14.0, 264.0, 19.0 ],
					"prototypename" : "M4L.patcher-summary",
					"text" : "Using omx.comp~ - a stereo compression object"
				}

			}
, 			{
				"box" : 				{
					"fontname" : "Arial Bold Italic",
					"fontsize" : 18.0,
					"id" : "obj-33",
					"maxclass" : "comment",
					"numinlets" : 1,
					"numoutlets" : 0,
					"patching_rect" : [ 16.0, 8.0, 117.0, 27.0 ],
					"prototypename" : "M4L.subpatcher-title",
					"text" : "Compressor",
					"textcolor" : [ 0.3, 0.34, 0.4, 1.0 ]
				}

			}
, 			{
				"box" : 				{
					"fontname" : "Arial Italic",
					"fontsize" : 11.0,
					"id" : "obj-29",
					"linecount" : 5,
					"maxclass" : "comment",
					"numinlets" : 1,
					"numoutlets" : 0,
					"patching_rect" : [ 16.0, 32.0, 648.0, 68.0 ],
					"prototypename" : "M4L.patcher-story",
					"text" : "Max/MSP allows you to build many tools in many different fields, while letting you design both the processing algorithm and the user interface of a patch. Sometimes, however, it is more efficient and intelligent to use some of the resources provided with MSP, especially for specific audio/DSP techniques. Max includes several powerful mastering-oriented objects (like the omx.comp~ object you see here) that perform complex tasks like signal limiting or compression. Those objects let you control a complex algorithm using messages - you've just got to design the interface you like, and connect the controllers to the object via message boxes."
				}

			}
, 			{
				"box" : 				{
					"fontname" : "Arial",
					"fontsize" : 10.0,
					"id" : "obj-124",
					"maxclass" : "comment",
					"numinlets" : 1,
					"numoutlets" : 0,
					"patching_rect" : [ 336.0, 416.0, 59.0, 18.0 ],
					"text" : "Separators"
				}

			}
, 			{
				"box" : 				{
					"fontname" : "Arial Bold",
					"fontsize" : 10.0,
					"id" : "obj-123",
					"maxclass" : "newobj",
					"numinlets" : 6,
					"numoutlets" : 2,
					"outlettype" : [ "", "" ],
					"patcher" : 					{
						"fileversion" : 1,
						"appversion" : 						{
							"major" : 8,
							"minor" : 5,
							"revision" : 4,
							"architecture" : "x64",
							"modernui" : 1
						}
,
						"classnamespace" : "box",
						"rect" : [ 660.0, 44.0, 363.0, 331.0 ],
						"bglocked" : 0,
						"openinpresentation" : 0,
						"default_fontsize" : 10.0,
						"default_fontface" : 0,
						"default_fontname" : "Arial Bold",
						"gridonopen" : 1,
						"gridsize" : [ 8.0, 8.0 ],
						"gridsnaponopen" : 1,
						"objectsnaponopen" : 1,
						"statusbarvisible" : 2,
						"toolbarvisible" : 1,
						"lefttoolbarpinned" : 0,
						"toptoolbarpinned" : 0,
						"righttoolbarpinned" : 0,
						"bottomtoolbarpinned" : 0,
						"toolbars_unpinned_last_save" : 0,
						"tallnewobj" : 0,
						"boxanimatetime" : 200,
						"enablehscroll" : 1,
						"enablevscroll" : 1,
						"devicewidth" : 0.0,
						"description" : "",
						"digest" : "",
						"tags" : "",
						"style" : "",
						"subpatcher_template" : "",
						"assistshowspatchername" : 0,
						"boxes" : [ 							{
								"box" : 								{
									"fontname" : "Arial Bold",
									"fontsize" : 10.0,
									"id" : "obj-1",
									"maxclass" : "newobj",
									"numinlets" : 6,
									"numoutlets" : 1,
									"outlettype" : [ "" ],
									"patching_rect" : [ 88.0, 128.0, 89.0, 18.0 ],
									"text" : "scale -90 0 0 100"
								}

							}
, 							{
								"box" : 								{
									"fontname" : "Arial Bold",
									"fontsize" : 10.0,
									"id" : "obj-23",
									"maxclass" : "message",
									"numinlets" : 2,
									"numoutlets" : 1,
									"outlettype" : [ "" ],
									"patching_rect" : [ 280.0, 224.0, 53.0, 16.0 ],
									"text" : "active $1"
								}

							}
, 							{
								"box" : 								{
									"fontname" : "Arial Bold",
									"fontsize" : 10.0,
									"id" : "obj-64",
									"maxclass" : "message",
									"numinlets" : 2,
									"numoutlets" : 1,
									"outlettype" : [ "" ],
									"patching_rect" : [ 184.0, 273.0, 79.0, 16.0 ],
									"text" : "freezeLevel $1"
								}

							}
, 							{
								"box" : 								{
									"fontname" : "Arial Bold",
									"fontsize" : 10.0,
									"id" : "obj-65",
									"maxclass" : "newobj",
									"numinlets" : 6,
									"numoutlets" : 1,
									"outlettype" : [ "" ],
									"patching_rect" : [ 184.0, 248.0, 89.0, 18.0 ],
									"text" : "scale -90 0 0 100"
								}

							}
, 							{
								"box" : 								{
									"fontname" : "Arial Bold",
									"fontsize" : 10.0,
									"id" : "obj-55",
									"maxclass" : "message",
									"numinlets" : 2,
									"numoutlets" : 1,
									"outlettype" : [ "" ],
									"patching_rect" : [ 152.0, 224.0, 80.0, 16.0 ],
									"text" : "gatingLevel $1"
								}

							}
, 							{
								"box" : 								{
									"fontname" : "Arial Bold",
									"fontsize" : 10.0,
									"id" : "obj-49",
									"maxclass" : "newobj",
									"numinlets" : 6,
									"numoutlets" : 1,
									"outlettype" : [ "" ],
									"patching_rect" : [ 152.0, 200.0, 89.0, 18.0 ],
									"text" : "scale -90 0 0 100"
								}

							}
, 							{
								"box" : 								{
									"fontname" : "Arial Bold",
									"fontsize" : 10.0,
									"id" : "obj-48",
									"maxclass" : "message",
									"numinlets" : 2,
									"numoutlets" : 1,
									"outlettype" : [ "" ],
									"patching_rect" : [ 24.0, 80.0, 106.0, 16.0 ],
									"text" : "channelCoupling $1"
								}

							}
, 							{
								"box" : 								{
									"fontname" : "Arial Bold",
									"fontsize" : 10.0,
									"id" : "obj-37",
									"maxclass" : "message",
									"numinlets" : 2,
									"numoutlets" : 1,
									"outlettype" : [ "" ],
									"patching_rect" : [ 120.0, 176.0, 83.0, 16.0 ],
									"text" : "smoothGain $1"
								}

							}
, 							{
								"box" : 								{
									"fontname" : "Arial Bold",
									"fontsize" : 10.0,
									"id" : "obj-21",
									"maxclass" : "message",
									"numinlets" : 2,
									"numoutlets" : 1,
									"outlettype" : [ "" ],
									"patching_rect" : [ 88.0, 152.0, 85.0, 16.0 ],
									"text" : "ngThreshold $1"
								}

							}
, 							{
								"box" : 								{
									"fontname" : "Arial Bold",
									"fontsize" : 10.0,
									"id" : "obj-16",
									"maxclass" : "message",
									"numinlets" : 2,
									"numoutlets" : 1,
									"outlettype" : [ "" ],
									"patching_rect" : [ 56.0, 104.0, 76.0, 16.0 ],
									"text" : "ngEnabled $1"
								}

							}
, 							{
								"box" : 								{
									"comment" : "",
									"id" : "obj-20",
									"index" : 1,
									"maxclass" : "inlet",
									"numinlets" : 0,
									"numoutlets" : 1,
									"outlettype" : [ "" ],
									"patching_rect" : [ 24.0, 16.0, 18.0, 18.0 ]
								}

							}
, 							{
								"box" : 								{
									"comment" : "",
									"id" : "obj-32",
									"index" : 5,
									"maxclass" : "inlet",
									"numinlets" : 0,
									"numoutlets" : 1,
									"outlettype" : [ "" ],
									"patching_rect" : [ 152.0, 16.0, 18.0, 18.0 ]
								}

							}
, 							{
								"box" : 								{
									"comment" : "",
									"id" : "obj-38",
									"index" : 2,
									"maxclass" : "inlet",
									"numinlets" : 0,
									"numoutlets" : 1,
									"outlettype" : [ "" ],
									"patching_rect" : [ 56.0, 16.0, 18.0, 18.0 ]
								}

							}
, 							{
								"box" : 								{
									"comment" : "",
									"id" : "obj-40",
									"index" : 3,
									"maxclass" : "inlet",
									"numinlets" : 0,
									"numoutlets" : 1,
									"outlettype" : [ "" ],
									"patching_rect" : [ 88.0, 16.0, 18.0, 18.0 ]
								}

							}
, 							{
								"box" : 								{
									"comment" : "",
									"id" : "obj-92",
									"index" : 4,
									"maxclass" : "inlet",
									"numinlets" : 0,
									"numoutlets" : 1,
									"outlettype" : [ "" ],
									"patching_rect" : [ 120.0, 16.0, 18.0, 18.0 ]
								}

							}
, 							{
								"box" : 								{
									"comment" : "",
									"id" : "obj-94",
									"index" : 6,
									"maxclass" : "inlet",
									"numinlets" : 0,
									"numoutlets" : 1,
									"outlettype" : [ "" ],
									"patching_rect" : [ 184.0, 16.0, 18.0, 18.0 ]
								}

							}
, 							{
								"box" : 								{
									"comment" : "",
									"id" : "obj-110",
									"index" : 1,
									"maxclass" : "outlet",
									"numinlets" : 1,
									"numoutlets" : 0,
									"patching_rect" : [ 24.0, 288.0, 18.0, 18.0 ]
								}

							}
, 							{
								"box" : 								{
									"comment" : "",
									"id" : "obj-117",
									"index" : 2,
									"maxclass" : "outlet",
									"numinlets" : 1,
									"numoutlets" : 0,
									"patching_rect" : [ 280.0, 288.0, 18.0, 18.0 ]
								}

							}
 ],
						"lines" : [ 							{
								"patchline" : 								{
									"destination" : [ "obj-21", 0 ],
									"source" : [ "obj-1", 0 ]
								}

							}
, 							{
								"patchline" : 								{
									"destination" : [ "obj-110", 0 ],
									"source" : [ "obj-16", 0 ]
								}

							}
, 							{
								"patchline" : 								{
									"destination" : [ "obj-48", 0 ],
									"source" : [ "obj-20", 0 ]
								}

							}
, 							{
								"patchline" : 								{
									"destination" : [ "obj-110", 0 ],
									"source" : [ "obj-21", 0 ]
								}

							}
, 							{
								"patchline" : 								{
									"destination" : [ "obj-117", 0 ],
									"source" : [ "obj-23", 0 ]
								}

							}
, 							{
								"patchline" : 								{
									"destination" : [ "obj-49", 0 ],
									"source" : [ "obj-32", 0 ]
								}

							}
, 							{
								"patchline" : 								{
									"destination" : [ "obj-110", 0 ],
									"source" : [ "obj-37", 0 ]
								}

							}
, 							{
								"patchline" : 								{
									"destination" : [ "obj-16", 0 ],
									"order" : 1,
									"source" : [ "obj-38", 0 ]
								}

							}
, 							{
								"patchline" : 								{
									"destination" : [ "obj-23", 0 ],
									"order" : 0,
									"source" : [ "obj-38", 0 ]
								}

							}
, 							{
								"patchline" : 								{
									"destination" : [ "obj-1", 0 ],
									"source" : [ "obj-40", 0 ]
								}

							}
, 							{
								"patchline" : 								{
									"destination" : [ "obj-110", 0 ],
									"source" : [ "obj-48", 0 ]
								}

							}
, 							{
								"patchline" : 								{
									"destination" : [ "obj-55", 0 ],
									"source" : [ "obj-49", 0 ]
								}

							}
, 							{
								"patchline" : 								{
									"destination" : [ "obj-110", 0 ],
									"source" : [ "obj-55", 0 ]
								}

							}
, 							{
								"patchline" : 								{
									"destination" : [ "obj-110", 0 ],
									"source" : [ "obj-64", 0 ]
								}

							}
, 							{
								"patchline" : 								{
									"destination" : [ "obj-64", 0 ],
									"source" : [ "obj-65", 0 ]
								}

							}
, 							{
								"patchline" : 								{
									"destination" : [ "obj-37", 0 ],
									"source" : [ "obj-92", 0 ]
								}

							}
, 							{
								"patchline" : 								{
									"destination" : [ "obj-65", 0 ],
									"source" : [ "obj-94", 0 ]
								}

							}
 ]
					}
,
					"patching_rect" : [ 232.0, 367.0, 219.227050999999989, 20.0 ],
					"saved_object_attributes" : 					{
						"description" : "",
						"digest" : "",
						"fontname" : "Arial Bold",
						"fontsize" : 10.0,
						"globalpatchername" : "",
						"tags" : ""
					}
,
					"text" : "p Messages"
				}

			}
, 			{
				"box" : 				{
					"fontname" : "Arial Bold",
					"fontsize" : 10.0,
					"id" : "obj-121",
					"maxclass" : "newobj",
					"numinlets" : 4,
					"numoutlets" : 2,
					"outlettype" : [ "", "" ],
					"patcher" : 					{
						"fileversion" : 1,
						"appversion" : 						{
							"major" : 8,
							"minor" : 5,
							"revision" : 4,
							"architecture" : "x64",
							"modernui" : 1
						}
,
						"classnamespace" : "box",
						"rect" : [ 660.0, 44.0, 280.0, 177.0 ],
						"bglocked" : 0,
						"openinpresentation" : 0,
						"default_fontsize" : 10.0,
						"default_fontface" : 0,
						"default_fontname" : "Arial Bold",
						"gridonopen" : 1,
						"gridsize" : [ 8.0, 8.0 ],
						"gridsnaponopen" : 1,
						"objectsnaponopen" : 1,
						"statusbarvisible" : 2,
						"toolbarvisible" : 1,
						"lefttoolbarpinned" : 0,
						"toptoolbarpinned" : 0,
						"righttoolbarpinned" : 0,
						"bottomtoolbarpinned" : 0,
						"toolbars_unpinned_last_save" : 0,
						"tallnewobj" : 0,
						"boxanimatetime" : 200,
						"enablehscroll" : 1,
						"enablevscroll" : 1,
						"devicewidth" : 0.0,
						"description" : "",
						"digest" : "",
						"tags" : "",
						"style" : "",
						"subpatcher_template" : "",
						"assistshowspatchername" : 0,
						"boxes" : [ 							{
								"box" : 								{
									"fontname" : "Arial Bold",
									"fontsize" : 10.0,
									"id" : "obj-23",
									"maxclass" : "message",
									"numinlets" : 2,
									"numoutlets" : 1,
									"outlettype" : [ "" ],
									"patching_rect" : [ 200.0, 72.0, 53.0, 16.0 ],
									"text" : "active $1"
								}

							}
, 							{
								"box" : 								{
									"fontname" : "Arial Bold",
									"fontsize" : 10.0,
									"id" : "obj-48",
									"maxclass" : "message",
									"numinlets" : 2,
									"numoutlets" : 1,
									"outlettype" : [ "" ],
									"patching_rect" : [ 24.0, 48.0, 109.0, 16.0 ],
									"text" : "dualBandEnabled $1"
								}

							}
, 							{
								"box" : 								{
									"fontname" : "Arial Bold",
									"fontsize" : 10.0,
									"id" : "obj-37",
									"maxclass" : "message",
									"numinlets" : 2,
									"numoutlets" : 1,
									"outlettype" : [ "" ],
									"patching_rect" : [ 120.0, 121.0, 65.0, 16.0 ],
									"text" : "limMode $1"
								}

							}
, 							{
								"box" : 								{
									"fontname" : "Arial Bold",
									"fontsize" : 10.0,
									"id" : "obj-21",
									"maxclass" : "message",
									"numinlets" : 2,
									"numoutlets" : 1,
									"outlettype" : [ "" ],
									"patching_rect" : [ 88.0, 96.0, 78.0, 16.0 ],
									"text" : "limEnabled $1"
								}

							}
, 							{
								"box" : 								{
									"fontname" : "Arial Bold",
									"fontsize" : 10.0,
									"id" : "obj-16",
									"maxclass" : "message",
									"numinlets" : 2,
									"numoutlets" : 1,
									"outlettype" : [ "" ],
									"patching_rect" : [ 56.0, 72.0, 134.0, 16.0 ],
									"text" : "sidechainFilterEnabled $1"
								}

							}
, 							{
								"box" : 								{
									"comment" : "",
									"id" : "obj-20",
									"index" : 1,
									"maxclass" : "inlet",
									"numinlets" : 0,
									"numoutlets" : 1,
									"outlettype" : [ "" ],
									"patching_rect" : [ 24.0, 16.0, 18.0, 18.0 ]
								}

							}
, 							{
								"box" : 								{
									"comment" : "",
									"id" : "obj-38",
									"index" : 2,
									"maxclass" : "inlet",
									"numinlets" : 0,
									"numoutlets" : 1,
									"outlettype" : [ "" ],
									"patching_rect" : [ 56.0, 16.0, 18.0, 18.0 ]
								}

							}
, 							{
								"box" : 								{
									"comment" : "",
									"id" : "obj-40",
									"index" : 3,
									"maxclass" : "inlet",
									"numinlets" : 0,
									"numoutlets" : 1,
									"outlettype" : [ "" ],
									"patching_rect" : [ 88.0, 16.0, 18.0, 18.0 ]
								}

							}
, 							{
								"box" : 								{
									"comment" : "",
									"id" : "obj-92",
									"index" : 4,
									"maxclass" : "inlet",
									"numinlets" : 0,
									"numoutlets" : 1,
									"outlettype" : [ "" ],
									"patching_rect" : [ 120.0, 16.0, 18.0, 18.0 ]
								}

							}
, 							{
								"box" : 								{
									"comment" : "",
									"id" : "obj-110",
									"index" : 1,
									"maxclass" : "outlet",
									"numinlets" : 1,
									"numoutlets" : 0,
									"patching_rect" : [ 24.0, 136.0, 18.0, 18.0 ]
								}

							}
, 							{
								"box" : 								{
									"comment" : "",
									"id" : "obj-117",
									"index" : 2,
									"maxclass" : "outlet",
									"numinlets" : 1,
									"numoutlets" : 0,
									"patching_rect" : [ 200.0, 136.0, 18.0, 18.0 ]
								}

							}
 ],
						"lines" : [ 							{
								"patchline" : 								{
									"destination" : [ "obj-110", 0 ],
									"source" : [ "obj-16", 0 ]
								}

							}
, 							{
								"patchline" : 								{
									"destination" : [ "obj-48", 0 ],
									"source" : [ "obj-20", 0 ]
								}

							}
, 							{
								"patchline" : 								{
									"destination" : [ "obj-110", 0 ],
									"source" : [ "obj-21", 0 ]
								}

							}
, 							{
								"patchline" : 								{
									"destination" : [ "obj-117", 0 ],
									"source" : [ "obj-23", 0 ]
								}

							}
, 							{
								"patchline" : 								{
									"destination" : [ "obj-110", 0 ],
									"source" : [ "obj-37", 0 ]
								}

							}
, 							{
								"patchline" : 								{
									"destination" : [ "obj-16", 0 ],
									"source" : [ "obj-38", 0 ]
								}

							}
, 							{
								"patchline" : 								{
									"destination" : [ "obj-21", 0 ],
									"order" : 1,
									"source" : [ "obj-40", 0 ]
								}

							}
, 							{
								"patchline" : 								{
									"destination" : [ "obj-23", 0 ],
									"order" : 0,
									"source" : [ "obj-40", 0 ]
								}

							}
, 							{
								"patchline" : 								{
									"destination" : [ "obj-110", 0 ],
									"source" : [ "obj-48", 0 ]
								}

							}
, 							{
								"patchline" : 								{
									"destination" : [ "obj-37", 0 ],
									"source" : [ "obj-92", 0 ]
								}

							}
 ]
					}
,
					"patching_rect" : [ 232.0, 264.0, 211.227050999999989, 20.0 ],
					"saved_object_attributes" : 					{
						"description" : "",
						"digest" : "",
						"fontname" : "Arial Bold",
						"fontsize" : 10.0,
						"globalpatchername" : "",
						"tags" : ""
					}
,
					"text" : "p Messages"
				}

			}
, 			{
				"box" : 				{
					"fontname" : "Arial Bold",
					"fontsize" : 10.0,
					"id" : "obj-120",
					"maxclass" : "newobj",
					"numinlets" : 3,
					"numoutlets" : 2,
					"outlettype" : [ "", "" ],
					"patcher" : 					{
						"fileversion" : 1,
						"appversion" : 						{
							"major" : 8,
							"minor" : 5,
							"revision" : 4,
							"architecture" : "x64",
							"modernui" : 1
						}
,
						"classnamespace" : "box",
						"rect" : [ 668.0, 44.0, 226.0, 153.0 ],
						"bglocked" : 0,
						"openinpresentation" : 0,
						"default_fontsize" : 10.0,
						"default_fontface" : 0,
						"default_fontname" : "Arial Bold",
						"gridonopen" : 1,
						"gridsize" : [ 8.0, 8.0 ],
						"gridsnaponopen" : 1,
						"objectsnaponopen" : 1,
						"statusbarvisible" : 2,
						"toolbarvisible" : 1,
						"lefttoolbarpinned" : 0,
						"toptoolbarpinned" : 0,
						"righttoolbarpinned" : 0,
						"bottomtoolbarpinned" : 0,
						"toolbars_unpinned_last_save" : 0,
						"tallnewobj" : 0,
						"boxanimatetime" : 200,
						"enablehscroll" : 1,
						"enablevscroll" : 1,
						"devicewidth" : 0.0,
						"description" : "",
						"digest" : "",
						"tags" : "",
						"style" : "",
						"subpatcher_template" : "",
						"assistshowspatchername" : 0,
						"boxes" : [ 							{
								"box" : 								{
									"fontname" : "Arial Bold",
									"fontsize" : 10.0,
									"id" : "obj-23",
									"maxclass" : "newobj",
									"numinlets" : 2,
									"numoutlets" : 2,
									"outlettype" : [ "bang", "" ],
									"patching_rect" : [ 160.0, 72.0, 35.0, 18.0 ],
									"text" : "sel 1"
								}

							}
, 							{
								"box" : 								{
									"fontname" : "Arial Bold",
									"fontsize" : 10.0,
									"id" : "obj-48",
									"maxclass" : "message",
									"numinlets" : 2,
									"numoutlets" : 1,
									"outlettype" : [ "" ],
									"patching_rect" : [ 24.0, 48.0, 59.0, 16.0 ],
									"text" : "bypass $1"
								}

							}
, 							{
								"box" : 								{
									"fontname" : "Arial Bold",
									"fontsize" : 10.0,
									"id" : "obj-21",
									"maxclass" : "message",
									"numinlets" : 2,
									"numoutlets" : 1,
									"outlettype" : [ "" ],
									"patching_rect" : [ 88.0, 97.0, 73.0, 16.0 ],
									"text" : "meterRate $1"
								}

							}
, 							{
								"box" : 								{
									"fontname" : "Arial Bold",
									"fontsize" : 10.0,
									"id" : "obj-16",
									"maxclass" : "message",
									"numinlets" : 2,
									"numoutlets" : 1,
									"outlettype" : [ "" ],
									"patching_rect" : [ 56.0, 72.0, 57.0, 16.0 ],
									"text" : "meters $1"
								}

							}
, 							{
								"box" : 								{
									"comment" : "",
									"id" : "obj-20",
									"index" : 1,
									"maxclass" : "inlet",
									"numinlets" : 0,
									"numoutlets" : 1,
									"outlettype" : [ "" ],
									"patching_rect" : [ 24.0, 16.0, 18.0, 18.0 ]
								}

							}
, 							{
								"box" : 								{
									"comment" : "",
									"id" : "obj-38",
									"index" : 2,
									"maxclass" : "inlet",
									"numinlets" : 0,
									"numoutlets" : 1,
									"outlettype" : [ "" ],
									"patching_rect" : [ 56.0, 16.0, 18.0, 18.0 ]
								}

							}
, 							{
								"box" : 								{
									"comment" : "",
									"id" : "obj-40",
									"index" : 3,
									"maxclass" : "inlet",
									"numinlets" : 0,
									"numoutlets" : 1,
									"outlettype" : [ "" ],
									"patching_rect" : [ 88.0, 16.0, 18.0, 18.0 ]
								}

							}
, 							{
								"box" : 								{
									"comment" : "",
									"id" : "obj-110",
									"index" : 1,
									"maxclass" : "outlet",
									"numinlets" : 1,
									"numoutlets" : 0,
									"patching_rect" : [ 24.0, 112.0, 18.0, 18.0 ]
								}

							}
, 							{
								"box" : 								{
									"comment" : "",
									"id" : "obj-117",
									"index" : 2,
									"maxclass" : "outlet",
									"numinlets" : 1,
									"numoutlets" : 0,
									"patching_rect" : [ 176.0, 112.0, 18.0, 18.0 ]
								}

							}
 ],
						"lines" : [ 							{
								"patchline" : 								{
									"destination" : [ "obj-110", 0 ],
									"source" : [ "obj-16", 0 ]
								}

							}
, 							{
								"patchline" : 								{
									"destination" : [ "obj-48", 0 ],
									"source" : [ "obj-20", 0 ]
								}

							}
, 							{
								"patchline" : 								{
									"destination" : [ "obj-110", 0 ],
									"source" : [ "obj-21", 0 ]
								}

							}
, 							{
								"patchline" : 								{
									"destination" : [ "obj-117", 0 ],
									"source" : [ "obj-23", 1 ]
								}

							}
, 							{
								"patchline" : 								{
									"destination" : [ "obj-16", 0 ],
									"order" : 1,
									"source" : [ "obj-38", 0 ]
								}

							}
, 							{
								"patchline" : 								{
									"destination" : [ "obj-23", 0 ],
									"order" : 0,
									"source" : [ "obj-38", 0 ]
								}

							}
, 							{
								"patchline" : 								{
									"destination" : [ "obj-21", 0 ],
									"source" : [ "obj-40", 0 ]
								}

							}
, 							{
								"patchline" : 								{
									"destination" : [ "obj-110", 0 ],
									"source" : [ "obj-48", 0 ]
								}

							}
 ]
					}
,
					"patching_rect" : [ 120.0, 216.0, 67.0, 20.0 ],
					"saved_object_attributes" : 					{
						"description" : "",
						"digest" : "",
						"fontname" : "Arial Bold",
						"fontsize" : 10.0,
						"globalpatchername" : "",
						"tags" : ""
					}
,
					"text" : "p Messages"
				}

			}
, 			{
				"box" : 				{
					"fontname" : "Arial Bold",
					"fontsize" : 10.0,
					"id" : "obj-119",
					"maxclass" : "newobj",
					"numinlets" : 8,
					"numoutlets" : 2,
					"outlettype" : [ "", "" ],
					"patcher" : 					{
						"fileversion" : 1,
						"appversion" : 						{
							"major" : 8,
							"minor" : 5,
							"revision" : 4,
							"architecture" : "x64",
							"modernui" : 1
						}
,
						"classnamespace" : "box",
						"rect" : [ 490.0, 44.0, 423.0, 353.0 ],
						"bglocked" : 0,
						"openinpresentation" : 0,
						"default_fontsize" : 10.0,
						"default_fontface" : 0,
						"default_fontname" : "Arial Bold",
						"gridonopen" : 1,
						"gridsize" : [ 8.0, 8.0 ],
						"gridsnaponopen" : 1,
						"objectsnaponopen" : 1,
						"statusbarvisible" : 2,
						"toolbarvisible" : 1,
						"lefttoolbarpinned" : 0,
						"toptoolbarpinned" : 0,
						"righttoolbarpinned" : 0,
						"bottomtoolbarpinned" : 0,
						"toolbars_unpinned_last_save" : 0,
						"tallnewobj" : 0,
						"boxanimatetime" : 200,
						"enablehscroll" : 1,
						"enablevscroll" : 1,
						"devicewidth" : 0.0,
						"description" : "",
						"digest" : "",
						"tags" : "",
						"style" : "",
						"subpatcher_template" : "",
						"assistshowspatchername" : 0,
						"boxes" : [ 							{
								"box" : 								{
									"fontname" : "Arial Bold",
									"fontsize" : 10.0,
									"id" : "obj-23",
									"maxclass" : "message",
									"numinlets" : 2,
									"numoutlets" : 1,
									"outlettype" : [ "" ],
									"patching_rect" : [ 352.0, 248.0, 53.0, 16.0 ],
									"text" : "active $1"
								}

							}
, 							{
								"box" : 								{
									"fontname" : "Arial Bold",
									"fontsize" : 10.0,
									"id" : "obj-64",
									"maxclass" : "message",
									"numinlets" : 2,
									"numoutlets" : 1,
									"outlettype" : [ "" ],
									"patching_rect" : [ 248.0, 297.0, 90.0, 16.0 ],
									"text" : "agcThreshold $1"
								}

							}
, 							{
								"box" : 								{
									"fontname" : "Arial Bold",
									"fontsize" : 10.0,
									"id" : "obj-65",
									"maxclass" : "newobj",
									"numinlets" : 6,
									"numoutlets" : 1,
									"outlettype" : [ "" ],
									"patching_rect" : [ 248.0, 272.0, 89.0, 18.0 ],
									"text" : "scale -36 0 0 100"
								}

							}
, 							{
								"box" : 								{
									"fontname" : "Arial Bold",
									"fontsize" : 10.0,
									"id" : "obj-62",
									"maxclass" : "message",
									"numinlets" : 2,
									"numoutlets" : 1,
									"outlettype" : [ "" ],
									"patching_rect" : [ 216.0, 248.0, 119.0, 16.0 ],
									"text" : "progressiveRelease $1"
								}

							}
, 							{
								"box" : 								{
									"fontname" : "Arial Bold",
									"fontsize" : 10.0,
									"id" : "obj-61",
									"maxclass" : "message",
									"numinlets" : 2,
									"numoutlets" : 1,
									"outlettype" : [ "" ],
									"patching_rect" : [ 184.0, 224.0, 46.0, 16.0 ],
									"text" : "ratio $1"
								}

							}
, 							{
								"box" : 								{
									"fontname" : "Arial Bold",
									"fontsize" : 10.0,
									"id" : "obj-55",
									"maxclass" : "message",
									"numinlets" : 2,
									"numoutlets" : 1,
									"outlettype" : [ "" ],
									"patching_rect" : [ 152.0, 200.0, 52.0, 16.0 ],
									"text" : "range $1"
								}

							}
, 							{
								"box" : 								{
									"fontname" : "Arial Bold",
									"fontsize" : 10.0,
									"id" : "obj-49",
									"maxclass" : "newobj",
									"numinlets" : 6,
									"numoutlets" : 1,
									"outlettype" : [ "" ],
									"patching_rect" : [ 152.0, 176.0, 86.5, 18.0 ],
									"text" : "scale 0 36 0 100"
								}

							}
, 							{
								"box" : 								{
									"fontname" : "Arial Bold",
									"fontsize" : 10.0,
									"id" : "obj-48",
									"maxclass" : "message",
									"numinlets" : 2,
									"numoutlets" : 1,
									"outlettype" : [ "" ],
									"patching_rect" : [ 24.0, 80.0, 81.0, 16.0 ],
									"text" : "agcEnabled $1"
								}

							}
, 							{
								"box" : 								{
									"fontname" : "Arial Bold",
									"fontsize" : 10.0,
									"id" : "obj-37",
									"maxclass" : "message",
									"numinlets" : 2,
									"numoutlets" : 1,
									"outlettype" : [ "" ],
									"patching_rect" : [ 120.0, 152.0, 50.0, 16.0 ],
									"text" : "delay $1"
								}

							}
, 							{
								"box" : 								{
									"fontname" : "Arial Bold",
									"fontsize" : 10.0,
									"id" : "obj-21",
									"maxclass" : "message",
									"numinlets" : 2,
									"numoutlets" : 1,
									"outlettype" : [ "" ],
									"patching_rect" : [ 88.0, 128.0, 59.0, 16.0 ],
									"text" : "release $1"
								}

							}
, 							{
								"box" : 								{
									"fontname" : "Arial Bold",
									"fontsize" : 10.0,
									"id" : "obj-16",
									"maxclass" : "message",
									"numinlets" : 2,
									"numoutlets" : 1,
									"outlettype" : [ "" ],
									"patching_rect" : [ 56.0, 104.0, 53.0, 16.0 ],
									"text" : "attack $1"
								}

							}
, 							{
								"box" : 								{
									"comment" : "",
									"id" : "obj-20",
									"index" : 1,
									"maxclass" : "inlet",
									"numinlets" : 0,
									"numoutlets" : 1,
									"outlettype" : [ "" ],
									"patching_rect" : [ 24.0, 16.0, 18.0, 18.0 ]
								}

							}
, 							{
								"box" : 								{
									"comment" : "",
									"id" : "obj-32",
									"index" : 5,
									"maxclass" : "inlet",
									"numinlets" : 0,
									"numoutlets" : 1,
									"outlettype" : [ "" ],
									"patching_rect" : [ 152.0, 16.0, 18.0, 18.0 ]
								}

							}
, 							{
								"box" : 								{
									"comment" : "",
									"id" : "obj-38",
									"index" : 2,
									"maxclass" : "inlet",
									"numinlets" : 0,
									"numoutlets" : 1,
									"outlettype" : [ "" ],
									"patching_rect" : [ 56.0, 16.0, 18.0, 18.0 ]
								}

							}
, 							{
								"box" : 								{
									"comment" : "",
									"id" : "obj-39",
									"index" : 6,
									"maxclass" : "inlet",
									"numinlets" : 0,
									"numoutlets" : 1,
									"outlettype" : [ "" ],
									"patching_rect" : [ 184.0, 16.0, 18.0, 18.0 ]
								}

							}
, 							{
								"box" : 								{
									"comment" : "",
									"id" : "obj-40",
									"index" : 3,
									"maxclass" : "inlet",
									"numinlets" : 0,
									"numoutlets" : 1,
									"outlettype" : [ "" ],
									"patching_rect" : [ 88.0, 16.0, 18.0, 18.0 ]
								}

							}
, 							{
								"box" : 								{
									"comment" : "",
									"id" : "obj-87",
									"index" : 7,
									"maxclass" : "inlet",
									"numinlets" : 0,
									"numoutlets" : 1,
									"outlettype" : [ "" ],
									"patching_rect" : [ 216.0, 16.0, 18.0, 18.0 ]
								}

							}
, 							{
								"box" : 								{
									"comment" : "",
									"id" : "obj-92",
									"index" : 4,
									"maxclass" : "inlet",
									"numinlets" : 0,
									"numoutlets" : 1,
									"outlettype" : [ "" ],
									"patching_rect" : [ 120.0, 16.0, 18.0, 18.0 ]
								}

							}
, 							{
								"box" : 								{
									"comment" : "",
									"id" : "obj-94",
									"index" : 8,
									"maxclass" : "inlet",
									"numinlets" : 0,
									"numoutlets" : 1,
									"outlettype" : [ "" ],
									"patching_rect" : [ 248.0, 16.0, 18.0, 18.0 ]
								}

							}
, 							{
								"box" : 								{
									"comment" : "",
									"id" : "obj-110",
									"index" : 1,
									"maxclass" : "outlet",
									"numinlets" : 1,
									"numoutlets" : 0,
									"patching_rect" : [ 24.0, 312.0, 18.0, 18.0 ]
								}

							}
, 							{
								"box" : 								{
									"comment" : "",
									"id" : "obj-117",
									"index" : 2,
									"maxclass" : "outlet",
									"numinlets" : 1,
									"numoutlets" : 0,
									"patching_rect" : [ 352.0, 312.0, 18.0, 18.0 ]
								}

							}
 ],
						"lines" : [ 							{
								"patchline" : 								{
									"destination" : [ "obj-110", 0 ],
									"source" : [ "obj-16", 0 ]
								}

							}
, 							{
								"patchline" : 								{
									"destination" : [ "obj-23", 0 ],
									"order" : 0,
									"source" : [ "obj-20", 0 ]
								}

							}
, 							{
								"patchline" : 								{
									"destination" : [ "obj-48", 0 ],
									"order" : 1,
									"source" : [ "obj-20", 0 ]
								}

							}
, 							{
								"patchline" : 								{
									"destination" : [ "obj-110", 0 ],
									"source" : [ "obj-21", 0 ]
								}

							}
, 							{
								"patchline" : 								{
									"destination" : [ "obj-117", 0 ],
									"source" : [ "obj-23", 0 ]
								}

							}
, 							{
								"patchline" : 								{
									"destination" : [ "obj-49", 0 ],
									"source" : [ "obj-32", 0 ]
								}

							}
, 							{
								"patchline" : 								{
									"destination" : [ "obj-110", 0 ],
									"source" : [ "obj-37", 0 ]
								}

							}
, 							{
								"patchline" : 								{
									"destination" : [ "obj-16", 0 ],
									"source" : [ "obj-38", 0 ]
								}

							}
, 							{
								"patchline" : 								{
									"destination" : [ "obj-61", 0 ],
									"source" : [ "obj-39", 0 ]
								}

							}
, 							{
								"patchline" : 								{
									"destination" : [ "obj-21", 0 ],
									"source" : [ "obj-40", 0 ]
								}

							}
, 							{
								"patchline" : 								{
									"destination" : [ "obj-110", 0 ],
									"source" : [ "obj-48", 0 ]
								}

							}
, 							{
								"patchline" : 								{
									"destination" : [ "obj-55", 0 ],
									"source" : [ "obj-49", 0 ]
								}

							}
, 							{
								"patchline" : 								{
									"destination" : [ "obj-110", 0 ],
									"source" : [ "obj-55", 0 ]
								}

							}
, 							{
								"patchline" : 								{
									"destination" : [ "obj-110", 0 ],
									"source" : [ "obj-61", 0 ]
								}

							}
, 							{
								"patchline" : 								{
									"destination" : [ "obj-110", 0 ],
									"source" : [ "obj-62", 0 ]
								}

							}
, 							{
								"patchline" : 								{
									"destination" : [ "obj-110", 0 ],
									"source" : [ "obj-64", 0 ]
								}

							}
, 							{
								"patchline" : 								{
									"destination" : [ "obj-64", 0 ],
									"source" : [ "obj-65", 0 ]
								}

							}
, 							{
								"patchline" : 								{
									"destination" : [ "obj-62", 0 ],
									"source" : [ "obj-87", 0 ]
								}

							}
, 							{
								"patchline" : 								{
									"destination" : [ "obj-37", 0 ],
									"source" : [ "obj-92", 0 ]
								}

							}
, 							{
								"patchline" : 								{
									"destination" : [ "obj-65", 0 ],
									"source" : [ "obj-94", 0 ]
								}

							}
 ]
					}
,
					"patching_rect" : [ 232.0, 192.0, 299.227051000000017, 20.0 ],
					"saved_object_attributes" : 					{
						"description" : "",
						"digest" : "",
						"fontname" : "Arial Bold",
						"fontsize" : 10.0,
						"globalpatchername" : "",
						"tags" : ""
					}
,
					"text" : "p Messages"
				}

			}
, 			{
				"box" : 				{
					"clip_size" : 1,
					"display_range" : [ -70.0, 30.0 ],
					"id" : "obj-19",
					"interp" : 50.0,
					"lastchannelcount" : 0,
					"maxclass" : "live.gain~",
					"numinlets" : 2,
					"numoutlets" : 5,
					"outlettype" : [ "signal", "signal", "", "float", "list" ],
					"parameter_enable" : 1,
					"patching_rect" : [ 56.0, 424.0, 35.0, 94.0 ],
					"presentation" : 1,
					"presentation_rect" : [ 508.0, 8.0, 40.0, 152.0 ],
					"relative" : 1,
					"saved_attribute_attributes" : 					{
						"valueof" : 						{
							"parameter_initial" : [ 0.0 ],
							"parameter_initial_enable" : 1,
							"parameter_linknames" : 1,
							"parameter_longname" : "Gain",
							"parameter_mmax" : 30.0,
							"parameter_mmin" : -70.0,
							"parameter_shortname" : "Gain",
							"parameter_speedlim" : 0.0,
							"parameter_type" : 0,
							"parameter_unitstyle" : 4
						}

					}
,
					"varname" : "Gain"
				}

			}
, 			{
				"box" : 				{
					"id" : "obj-118",
					"justification" : 1,
					"linecolor" : [ 0.301961, 0.337255, 0.403922, 1.0 ],
					"maxclass" : "live.line",
					"numinlets" : 1,
					"numoutlets" : 0,
					"patching_rect" : [ 328.0, 448.0, 72.0, 8.0 ],
					"presentation" : 1,
					"presentation_rect" : [ 248.0, 8.0, 16.0, 152.0 ],
					"prototypename" : "M4L.live.line.dark.H",
					"saved_attribute_attributes" : 					{
						"linecolor" : 						{
							"expression" : ""
						}

					}

				}

			}
, 			{
				"box" : 				{
					"id" : "obj-115",
					"justification" : 1,
					"linecolor" : [ 0.301961, 0.337255, 0.403922, 1.0 ],
					"maxclass" : "live.line",
					"numinlets" : 1,
					"numoutlets" : 0,
					"patching_rect" : [ 328.0, 440.0, 72.0, 8.0 ],
					"presentation" : 1,
					"presentation_rect" : [ 168.0, 8.0, 16.0, 152.0 ],
					"prototypename" : "M4L.live.line.dark.H",
					"saved_attribute_attributes" : 					{
						"linecolor" : 						{
							"expression" : ""
						}

					}

				}

			}
, 			{
				"box" : 				{
					"id" : "obj-114",
					"justification" : 1,
					"linecolor" : [ 0.301961, 0.337255, 0.403922, 1.0 ],
					"maxclass" : "live.line",
					"numinlets" : 1,
					"numoutlets" : 0,
					"patching_rect" : [ 328.0, 432.0, 72.0, 8.0 ],
					"presentation" : 1,
					"presentation_rect" : [ 16.0, 28.0, 152.0, 16.0 ],
					"prototypename" : "M4L.live.line.dark.H",
					"saved_attribute_attributes" : 					{
						"linecolor" : 						{
							"expression" : ""
						}

					}

				}

			}
, 			{
				"box" : 				{
					"fontname" : "Arial Bold Italic",
					"fontsize" : 11.0,
					"id" : "obj-113",
					"maxclass" : "comment",
					"numinlets" : 1,
					"numoutlets" : 0,
					"patching_rect" : [ 368.0, 496.0, 91.0, 19.0 ],
					"prototypename" : "M4L.patcher-summary",
					"text" : "Documentation",
					"textcolor" : [ 0.301961, 0.337255, 0.403922, 1.0 ]
				}

			}
, 			{
				"box" : 				{
					"fontname" : "Arial Bold",
					"fontsize" : 10.0,
					"id" : "obj-111",
					"maxclass" : "newobj",
					"numinlets" : 1,
					"numoutlets" : 3,
					"outlettype" : [ "", "bang", "int" ],
					"patching_rect" : [ 448.0, 544.0, 120.0, 20.0 ],
					"text" : "text omx.comp~doc.txt"
				}

			}
, 			{
				"box" : 				{
					"fontname" : "Arial Bold",
					"fontsize" : 10.0,
					"id" : "obj-13",
					"maxclass" : "newobj",
					"numinlets" : 1,
					"numoutlets" : 1,
					"outlettype" : [ "" ],
					"patching_rect" : [ 328.0, 520.0, 50.0, 20.0 ],
					"text" : "pcontrol"
				}

			}
, 			{
				"box" : 				{
					"fontname" : "Arial Bold",
					"fontsize" : 10.0,
					"id" : "obj-10",
					"maxclass" : "newobj",
					"numinlets" : 1,
					"numoutlets" : 0,
					"patcher" : 					{
						"fileversion" : 1,
						"appversion" : 						{
							"major" : 8,
							"minor" : 5,
							"revision" : 4,
							"architecture" : "x64",
							"modernui" : 1
						}
,
						"classnamespace" : "box",
						"rect" : [ 678.0, 99.0, 631.0, 309.0 ],
						"bglocked" : 0,
						"openinpresentation" : 0,
						"default_fontsize" : 10.0,
						"default_fontface" : 0,
						"default_fontname" : "Arial Bold",
						"gridonopen" : 1,
						"gridsize" : [ 8.0, 8.0 ],
						"gridsnaponopen" : 1,
						"objectsnaponopen" : 1,
						"statusbarvisible" : 2,
						"toolbarvisible" : 0,
						"lefttoolbarpinned" : 0,
						"toptoolbarpinned" : 0,
						"righttoolbarpinned" : 0,
						"bottomtoolbarpinned" : 0,
						"toolbars_unpinned_last_save" : 0,
						"tallnewobj" : 0,
						"boxanimatetime" : 200,
						"enablehscroll" : 0,
						"enablevscroll" : 0,
						"devicewidth" : 0.0,
						"description" : "",
						"digest" : "",
						"tags" : "",
						"style" : "",
						"subpatcher_template" : "",
						"assistshowspatchername" : 0,
						"boxes" : [ 							{
								"box" : 								{
									"comment" : "",
									"hidden" : 1,
									"id" : "obj-51",
									"index" : 1,
									"maxclass" : "inlet",
									"numinlets" : 0,
									"numoutlets" : 1,
									"outlettype" : [ "" ],
									"patching_rect" : [ 8.0, 8.0, 18.0, 18.0 ],
									"prototypename" : "M4L.Arial10"
								}

							}
, 							{
								"box" : 								{
									"autofit" : 1,
									"id" : "obj-1",
									"maxclass" : "fpic",
									"numinlets" : 1,
									"numoutlets" : 1,
									"outlettype" : [ "jit_matrix" ],
									"patching_rect" : [ 0.0, 0.0, 630.0, 308.627166999999986 ],
									"pic" : "omx.comp~flow.png"
								}

							}
 ],
						"lines" : [  ]
					}
,
					"patching_rect" : [ 328.0, 544.0, 112.0, 20.0 ],
					"saved_object_attributes" : 					{
						"description" : "",
						"digest" : "",
						"fontname" : "Arial Bold",
						"fontsize" : 10.0,
						"globalpatchername" : "",
						"tags" : ""
					}
,
					"text" : "patcher FlowDiagram"
				}

			}
, 			{
				"box" : 				{
					"fontname" : "Arial",
					"fontsize" : 10.0,
					"id" : "obj-69",
					"linecount" : 2,
					"maxclass" : "comment",
					"numinlets" : 1,
					"numoutlets" : 0,
					"patching_rect" : [ 136.0, 544.0, 60.0, 29.0 ],
					"presentation" : 1,
					"presentation_linecount" : 2,
					"presentation_rect" : [ 359.0, 28.0, 60.0, 29.0 ],
					"text" : "Gain (bass & master)"
				}

			}
, 			{
				"box" : 				{
					"active1" : [ 1.0, 1.0, 0.254902, 1.0 ],
					"bgcolor" : [ 0.94, 0.94, 0.94, 1.0 ],
					"emptycolor" : [ 0.301961, 0.337255, 0.403922, 1.0 ],
					"id" : "obj-108",
					"maxclass" : "preset",
					"numinlets" : 1,
					"numoutlets" : 5,
					"outlettype" : [ "preset", "int", "preset", "int", "" ],
					"patching_rect" : [ 40.0, 216.0, 62.0, 15.0 ],
					"prototypename" : "M4L.H",
					"stored1" : [ 0.984314, 0.819608, 0.05098, 1.0 ],
					"textcolor" : [ 1.0, 1.0, 1.0, 1.0 ]
				}

			}
, 			{
				"box" : 				{
					"fontname" : "Arial Bold",
					"fontsize" : 10.0,
					"id" : "obj-102",
					"maxclass" : "message",
					"numinlets" : 2,
					"numoutlets" : 1,
					"outlettype" : [ "" ],
					"patching_rect" : [ 242.0, 464.0, 36.0, 20.0 ],
					"text" : "$5 $6"
				}

			}
, 			{
				"box" : 				{
					"fontname" : "Arial Bold",
					"fontsize" : 9.0,
					"id" : "obj-103",
					"maxclass" : "comment",
					"numinlets" : 1,
					"numoutlets" : 0,
					"patching_rect" : [ 258.0, 474.0, 19.0, 17.0 ],
					"presentation" : 1,
					"presentation_rect" : [ 483.0, 56.0, 19.0, 17.0 ],
					"text" : "R",
					"textcolor" : [ 1.0, 0.603922, 0.0, 1.0 ]
				}

			}
, 			{
				"box" : 				{
					"fontname" : "Arial Bold",
					"fontsize" : 9.0,
					"id" : "obj-104",
					"maxclass" : "comment",
					"numinlets" : 1,
					"numoutlets" : 0,
					"patching_rect" : [ 243.0, 490.0, 19.0, 17.0 ],
					"presentation" : 1,
					"presentation_rect" : [ 468.0, 56.0, 19.0, 17.0 ],
					"text" : "L",
					"textcolor" : [ 1.0, 0.603922, 0.0, 1.0 ]
				}

			}
, 			{
				"box" : 				{
					"bgcolor" : [ 0.101961, 0.121569, 0.172549, 1.0 ],
					"id" : "obj-105",
					"ignoreclick" : 1,
					"maxclass" : "multislider",
					"numinlets" : 1,
					"numoutlets" : 2,
					"outlettype" : [ "", "" ],
					"parameter_enable" : 0,
					"patching_rect" : [ 242.0, 504.0, 32.0, 37.0 ],
					"presentation" : 1,
					"presentation_rect" : [ 467.0, 72.0, 32.0, 80.0 ],
					"setminmax" : [ 0.0, 250.0 ],
					"setstyle" : 1,
					"size" : 2,
					"slidercolor" : [ 1.0, 0.603922, 0.0, 1.0 ],
					"spacing" : 4,
					"thickness" : 1
				}

			}
, 			{
				"box" : 				{
					"fontname" : "Arial",
					"fontsize" : 10.0,
					"id" : "obj-106",
					"maxclass" : "comment",
					"numinlets" : 1,
					"numoutlets" : 0,
					"patching_rect" : [ 237.0, 544.0, 41.0, 18.0 ],
					"presentation" : 1,
					"presentation_rect" : [ 463.0, 40.0, 41.0, 18.0 ],
					"text" : "Limiter"
				}

			}
, 			{
				"box" : 				{
					"angle" : 0.0,
					"bgcolor" : [ 0.101961, 0.121569, 0.172549, 1.0 ],
					"id" : "obj-107",
					"maxclass" : "panel",
					"mode" : 0,
					"numinlets" : 1,
					"numoutlets" : 0,
					"patching_rect" : [ 238.0, 490.0, 40.0, 56.0 ],
					"presentation" : 1,
					"presentation_rect" : [ 463.0, 56.0, 40.0, 104.0 ],
					"prototypename" : "M4L.horiz.black",
					"rounded" : 16
				}

			}
, 			{
				"box" : 				{
					"fontname" : "Arial Bold",
					"fontsize" : 10.0,
					"id" : "obj-96",
					"maxclass" : "message",
					"numinlets" : 2,
					"numoutlets" : 1,
					"outlettype" : [ "" ],
					"patching_rect" : [ 194.0, 464.0, 36.0, 20.0 ],
					"text" : "$3 $4"
				}

			}
, 			{
				"box" : 				{
					"fontname" : "Arial Bold",
					"fontsize" : 9.0,
					"id" : "obj-97",
					"maxclass" : "comment",
					"numinlets" : 1,
					"numoutlets" : 0,
					"patching_rect" : [ 210.0, 490.0, 19.0, 17.0 ],
					"presentation" : 1,
					"presentation_rect" : [ 435.0, 56.0, 19.0, 17.0 ],
					"text" : "R",
					"textcolor" : [ 0.921569, 0.94902, 0.05098, 1.0 ]
				}

			}
, 			{
				"box" : 				{
					"fontname" : "Arial Bold",
					"fontsize" : 9.0,
					"id" : "obj-98",
					"maxclass" : "comment",
					"numinlets" : 1,
					"numoutlets" : 0,
					"patching_rect" : [ 195.0, 490.0, 19.0, 17.0 ],
					"presentation" : 1,
					"presentation_rect" : [ 420.0, 56.0, 19.0, 17.0 ],
					"text" : "L",
					"textcolor" : [ 0.921569, 0.94902, 0.05098, 1.0 ]
				}

			}
, 			{
				"box" : 				{
					"bgcolor" : [ 0.101961, 0.121569, 0.172549, 1.0 ],
					"id" : "obj-99",
					"ignoreclick" : 1,
					"maxclass" : "multislider",
					"numinlets" : 1,
					"numoutlets" : 2,
					"outlettype" : [ "", "" ],
					"parameter_enable" : 0,
					"patching_rect" : [ 194.0, 504.0, 32.0, 37.0 ],
					"presentation" : 1,
					"presentation_rect" : [ 419.0, 72.0, 32.0, 80.0 ],
					"setminmax" : [ 0.0, 250.0 ],
					"setstyle" : 1,
					"size" : 2,
					"slidercolor" : [ 0.921569, 0.94902, 0.05098, 1.0 ],
					"spacing" : 4,
					"thickness" : 1
				}

			}
, 			{
				"box" : 				{
					"fontname" : "Arial",
					"fontsize" : 10.0,
					"id" : "obj-100",
					"linecount" : 2,
					"maxclass" : "comment",
					"numinlets" : 1,
					"numoutlets" : 0,
					"patching_rect" : [ 194.0, 544.0, 37.0, 29.0 ],
					"presentation" : 1,
					"presentation_linecount" : 2,
					"presentation_rect" : [ 417.0, 28.0, 37.0, 29.0 ],
					"text" : "Noise gate"
				}

			}
, 			{
				"box" : 				{
					"angle" : 0.0,
					"bgcolor" : [ 0.101961, 0.121569, 0.172549, 1.0 ],
					"id" : "obj-101",
					"maxclass" : "panel",
					"mode" : 0,
					"numinlets" : 1,
					"numoutlets" : 0,
					"patching_rect" : [ 190.0, 490.0, 40.0, 56.0 ],
					"presentation" : 1,
					"presentation_rect" : [ 415.0, 56.0, 40.0, 104.0 ],
					"prototypename" : "M4L.horiz.black",
					"rounded" : 16
				}

			}
, 			{
				"box" : 				{
					"fontname" : "Arial Bold",
					"fontsize" : 10.0,
					"id" : "obj-95",
					"maxclass" : "message",
					"numinlets" : 2,
					"numoutlets" : 1,
					"outlettype" : [ "" ],
					"patching_rect" : [ 146.0, 464.0, 36.0, 20.0 ],
					"text" : "$1 $2"
				}

			}
, 			{
				"box" : 				{
					"fontname" : "Arial",
					"fontsize" : 10.0,
					"id" : "obj-89",
					"maxclass" : "comment",
					"numinlets" : 1,
					"numoutlets" : 0,
					"patching_rect" : [ 398.0, 296.0, 73.0, 18.0 ],
					"presentation" : 1,
					"presentation_rect" : [ 269.0, 99.0, 73.0, 18.0 ],
					"text" : "Level detector"
				}

			}
, 			{
				"box" : 				{
					"annotation" : "Gating/Freeze thresholds: The purpose of Gating is to prevent gain amplification (release action) when there is no usable signal anyway. This effectively combats background hiss build-up. When the input signal drops below the Gating threshold, release speeds will be slowed by a factor of three. When the input signal drops below the Freeze threshold, release will seize completely.",
					"id" : "obj-88",
					"maxclass" : "live.dial",
					"numinlets" : 1,
					"numoutlets" : 2,
					"outlettype" : [ "", "float" ],
					"parameter_enable" : 1,
					"patching_rect" : [ 432.0, 312.0, 44.0, 48.0 ],
					"presentation" : 1,
					"presentation_rect" : [ 305.0, 112.0, 44.0, 48.0 ],
					"saved_attribute_attributes" : 					{
						"valueof" : 						{
							"parameter_initial" : [ -54 ],
							"parameter_initial_enable" : 1,
							"parameter_linknames" : 1,
							"parameter_longname" : "LevelDetectFreeze",
							"parameter_mmax" : 0.0,
							"parameter_mmin" : -90.0,
							"parameter_shortname" : "Freeze",
							"parameter_speedlim" : 0.0,
							"parameter_steps" : 91,
							"parameter_type" : 1,
							"parameter_unitstyle" : 4
						}

					}
,
					"varname" : "LevelDetectFreeze"
				}

			}
, 			{
				"box" : 				{
					"annotation" : "Gating/Freeze thresholds: The purpose of Gating is to prevent gain amplification (release action) when there is no usable signal anyway. This effectively combats background hiss build-up. When the input signal drops below the Gating threshold, release speeds will be slowed by a factor of three. When the input signal drops below the Freeze threshold, release will seize completely.",
					"id" : "obj-84",
					"maxclass" : "live.dial",
					"numinlets" : 1,
					"numoutlets" : 2,
					"outlettype" : [ "", "float" ],
					"parameter_enable" : 1,
					"patching_rect" : [ 392.0, 312.0, 44.0, 48.0 ],
					"presentation" : 1,
					"presentation_rect" : [ 262.0, 112.0, 44.0, 48.0 ],
					"saved_attribute_attributes" : 					{
						"valueof" : 						{
							"parameter_initial" : [ -36 ],
							"parameter_initial_enable" : 1,
							"parameter_linknames" : 1,
							"parameter_longname" : "LevelDetectGating",
							"parameter_mmax" : 0.0,
							"parameter_mmin" : -90.0,
							"parameter_shortname" : "Gating",
							"parameter_speedlim" : 0.0,
							"parameter_steps" : 91,
							"parameter_type" : 1,
							"parameter_unitstyle" : 4
						}

					}
,
					"varname" : "LevelDetectGating"
				}

			}
, 			{
				"box" : 				{
					"fontname" : "Arial",
					"fontsize" : 10.0,
					"id" : "obj-76",
					"maxclass" : "comment",
					"numinlets" : 1,
					"numoutlets" : 0,
					"patching_rect" : [ 268.0, 328.0, 47.0, 18.0 ],
					"presentation" : 1,
					"presentation_rect" : [ 308.0, 7.0, 47.0, 18.0 ],
					"text" : "Expand."
				}

			}
, 			{
				"box" : 				{
					"annotation" : "Downward Expander: A noise gate is effective for reducing background hiss when no other signal is present. Here, it's implemented as a Ratio 2:1 Downward Expander.",
					"id" : "obj-81",
					"maxclass" : "live.dial",
					"numinlets" : 1,
					"numoutlets" : 2,
					"outlettype" : [ "", "float" ],
					"parameter_enable" : 1,
					"patching_rect" : [ 312.0, 312.0, 44.0, 48.0 ],
					"presentation" : 1,
					"presentation_rect" : [ 305.0, 48.0, 44.0, 48.0 ],
					"saved_attribute_attributes" : 					{
						"valueof" : 						{
							"parameter_initial" : [ -45 ],
							"parameter_initial_enable" : 1,
							"parameter_linknames" : 1,
							"parameter_longname" : "DownExpandThresh",
							"parameter_mmax" : 0.0,
							"parameter_mmin" : -90.0,
							"parameter_shortname" : "Thresh",
							"parameter_speedlim" : 0.0,
							"parameter_steps" : 91,
							"parameter_type" : 1,
							"parameter_unitstyle" : 4
						}

					}
,
					"varname" : "DownExpandThresh"
				}

			}
, 			{
				"box" : 				{
					"annotation" : "Downward expander on/off",
					"automation" : "Off",
					"automationon" : "On",
					"id" : "obj-77",
					"maxclass" : "live.text",
					"numinlets" : 1,
					"numoutlets" : 2,
					"outlettype" : [ "", "" ],
					"parameter_enable" : 1,
					"patching_rect" : [ 272.0, 344.0, 32.0, 15.0 ],
					"presentation" : 1,
					"presentation_rect" : [ 315.0, 24.0, 28.0, 15.0 ],
					"saved_attribute_attributes" : 					{
						"valueof" : 						{
							"parameter_enum" : [ "Off", "On" ],
							"parameter_initial" : [ 1 ],
							"parameter_initial_enable" : 1,
							"parameter_linknames" : 1,
							"parameter_longname" : "DownExpandEnable",
							"parameter_mmax" : 1,
							"parameter_shortname" : "Enable",
							"parameter_speedlim" : 0.0,
							"parameter_type" : 2
						}

					}
,
					"text" : "Off",
					"texton" : "On",
					"varname" : "DownExpandEnable"
				}

			}
, 			{
				"box" : 				{
					"fontname" : "Arial",
					"fontsize" : 10.0,
					"id" : "obj-71",
					"maxclass" : "comment",
					"numinlets" : 1,
					"numoutlets" : 0,
					"patching_rect" : [ 234.0, 296.0, 52.0, 18.0 ],
					"presentation" : 1,
					"presentation_rect" : [ 262.0, 7.0, 50.0, 18.0 ],
					"text" : "Coupling"
				}

			}
, 			{
				"box" : 				{
					"annotation" : "Channel Coupling: In Stereo mode, the gain control signal is derived from whichever channel is loudest, unlike in Left or Right mode where the gain control signal will only be derived from the selected channel.  Also useful for \"keying\" or \"ducking\" effects where the energy of one sound can modulate the level of another sound such as reverb.",
					"id" : "obj-74",
					"maxclass" : "live.menu",
					"numinlets" : 1,
					"numoutlets" : 3,
					"outlettype" : [ "", "", "float" ],
					"parameter_enable" : 1,
					"patching_rect" : [ 232.0, 312.0, 56.0, 15.0 ],
					"presentation" : 1,
					"presentation_rect" : [ 263.0, 24.0, 48.0, 15.0 ],
					"saved_attribute_attributes" : 					{
						"valueof" : 						{
							"parameter_enum" : [ "Stereo", "Left", "Right" ],
							"parameter_initial" : [ 0 ],
							"parameter_initial_enable" : 1,
							"parameter_linknames" : 1,
							"parameter_longname" : "ChannelCoupling",
							"parameter_mmax" : 2,
							"parameter_shortname" : "ChannelCoupling",
							"parameter_speedlim" : 0.0,
							"parameter_type" : 2
						}

					}
,
					"varname" : "ChannelCoupling"
				}

			}
, 			{
				"box" : 				{
					"fontname" : "Arial",
					"fontsize" : 10.0,
					"id" : "obj-68",
					"maxclass" : "comment",
					"numinlets" : 1,
					"numoutlets" : 0,
					"patching_rect" : [ 357.0, 296.0, 32.0, 18.0 ],
					"text" : "Gain"
				}

			}
, 			{
				"box" : 				{
					"annotation" : "Smoothing: Applies a low-pass filter to the control signal. Useful both to prevent artifacts (gain fluttering) from high attack/release values, and to intentionally make the compressor sluggish, which can create a nice effect for percussion instruments, and add that extra \"snap\" to any transient.",
					"id" : "obj-67",
					"maxclass" : "live.dial",
					"numinlets" : 1,
					"numoutlets" : 2,
					"outlettype" : [ "", "float" ],
					"parameter_enable" : 1,
					"patching_rect" : [ 352.0, 312.0, 44.0, 48.0 ],
					"presentation" : 1,
					"presentation_rect" : [ 262.0, 48.0, 44.0, 48.0 ],
					"prototypename" : "amount",
					"saved_attribute_attributes" : 					{
						"valueof" : 						{
							"parameter_initial" : [ 65 ],
							"parameter_initial_enable" : 1,
							"parameter_linknames" : 1,
							"parameter_longname" : "SmoothGain",
							"parameter_mmax" : 100.0,
							"parameter_shortname" : "Smooth",
							"parameter_speedlim" : 0.0,
							"parameter_steps" : 101,
							"parameter_type" : 1,
							"parameter_unitstyle" : 0
						}

					}
,
					"varname" : "SmoothGain"
				}

			}
, 			{
				"box" : 				{
					"fontname" : "Arial Bold Italic",
					"fontsize" : 11.0,
					"id" : "obj-51",
					"maxclass" : "comment",
					"numinlets" : 1,
					"numoutlets" : 0,
					"patching_rect" : [ 448.0, 264.0, 73.0, 19.0 ],
					"presentation" : 1,
					"presentation_rect" : [ 180.0, 7.0, 73.0, 19.0 ],
					"prototypename" : "M4L.patcher-summary",
					"text" : "AGC modes",
					"textcolor" : [ 0.301961, 0.337255, 0.403922, 1.0 ]
				}

			}
, 			{
				"box" : 				{
					"fontname" : "Arial",
					"fontsize" : 10.0,
					"id" : "obj-27",
					"maxclass" : "comment",
					"numinlets" : 1,
					"numoutlets" : 0,
					"patching_rect" : [ 360.0, 224.0, 41.0, 18.0 ],
					"presentation" : 1,
					"presentation_rect" : [ 195.0, 88.0, 41.0, 18.0 ],
					"text" : "Limiter"
				}

			}
, 			{
				"box" : 				{
					"annotation" : "Limiter on/off",
					"automation" : "Off",
					"automationon" : "On",
					"id" : "obj-31",
					"maxclass" : "live.text",
					"numinlets" : 1,
					"numoutlets" : 2,
					"outlettype" : [ "", "" ],
					"parameter_enable" : 1,
					"patching_rect" : [ 360.0, 240.0, 32.0, 15.0 ],
					"presentation" : 1,
					"presentation_rect" : [ 198.0, 104.0, 32.0, 15.0 ],
					"saved_attribute_attributes" : 					{
						"valueof" : 						{
							"parameter_enum" : [ "Off", "On" ],
							"parameter_initial" : [ 1 ],
							"parameter_initial_enable" : 1,
							"parameter_linknames" : 1,
							"parameter_longname" : "Limiter",
							"parameter_mmax" : 1,
							"parameter_shortname" : "Limiter",
							"parameter_speedlim" : 0.0,
							"parameter_type" : 2
						}

					}
,
					"text" : "Off",
					"texton" : "On",
					"varname" : "Limiter"
				}

			}
, 			{
				"box" : 				{
					"fontname" : "Arial",
					"fontsize" : 10.0,
					"id" : "obj-15",
					"maxclass" : "comment",
					"numinlets" : 1,
					"numoutlets" : 0,
					"patching_rect" : [ 280.0, 224.0, 79.0, 18.0 ],
					"presentation" : 1,
					"presentation_rect" : [ 177.0, 56.0, 79.0, 18.0 ],
					"text" : "Side chain filter"
				}

			}
, 			{
				"box" : 				{
					"annotation" : "Sidechain Filter: A selectable Sidechain Filter filters out part of the upper midrange, to make the compressor less sensitive to vocals, producing a much gentler response at any ratio - however this will also produce more output overshoots (over 0dB).",
					"automation" : "Off",
					"automationon" : "On",
					"id" : "obj-17",
					"maxclass" : "live.text",
					"numinlets" : 1,
					"numoutlets" : 2,
					"outlettype" : [ "", "" ],
					"parameter_enable" : 1,
					"patching_rect" : [ 296.0, 240.0, 32.0, 15.0 ],
					"presentation" : 1,
					"presentation_rect" : [ 198.0, 72.0, 32.0, 15.0 ],
					"saved_attribute_attributes" : 					{
						"valueof" : 						{
							"parameter_enum" : [ "Off", "On" ],
							"parameter_initial" : [ 0.0 ],
							"parameter_initial_enable" : 1,
							"parameter_linknames" : 1,
							"parameter_longname" : "SideChainFilter",
							"parameter_mmax" : 1,
							"parameter_shortname" : "SideChainFilter",
							"parameter_speedlim" : 0.0,
							"parameter_type" : 2
						}

					}
,
					"text" : "Off",
					"texton" : "On",
					"varname" : "SideChainFilter"
				}

			}
, 			{
				"box" : 				{
					"fontname" : "Arial",
					"fontsize" : 10.0,
					"id" : "obj-14",
					"maxclass" : "comment",
					"numinlets" : 1,
					"numoutlets" : 0,
					"patching_rect" : [ 224.0, 224.0, 56.0, 18.0 ],
					"presentation" : 1,
					"presentation_rect" : [ 188.0, 24.0, 56.0, 18.0 ],
					"text" : "Dual band"
				}

			}
, 			{
				"box" : 				{
					"annotation" : "Dual Band: The Compressor can be used in either wideband or dual band mode. In dual band, a crossover filter around 200hz splits the audio into two bands, thus preventing bass pumping.",
					"automation" : "Off",
					"automationon" : "On",
					"id" : "obj-8",
					"maxclass" : "live.text",
					"numinlets" : 1,
					"numoutlets" : 2,
					"outlettype" : [ "", "" ],
					"parameter_enable" : 1,
					"patching_rect" : [ 232.0, 240.0, 32.0, 15.0 ],
					"presentation" : 1,
					"presentation_rect" : [ 198.0, 40.0, 32.0, 15.0 ],
					"saved_attribute_attributes" : 					{
						"valueof" : 						{
							"parameter_enum" : [ "Off", "On" ],
							"parameter_initial" : [ 0.0 ],
							"parameter_initial_enable" : 1,
							"parameter_linknames" : 1,
							"parameter_longname" : "DualBand",
							"parameter_mmax" : 1,
							"parameter_shortname" : "DualBand",
							"parameter_speedlim" : 0.0,
							"parameter_type" : 2
						}

					}
,
					"text" : "Off",
					"texton" : "On",
					"varname" : "DualBand"
				}

			}
, 			{
				"box" : 				{
					"fontname" : "Arial Bold Italic",
					"fontsize" : 11.0,
					"id" : "obj-5",
					"maxclass" : "comment",
					"numinlets" : 1,
					"numoutlets" : 0,
					"patching_rect" : [ 536.0, 192.0, 35.0, 19.0 ],
					"presentation" : 1,
					"presentation_rect" : [ 16.0, 45.0, 35.0, 19.0 ],
					"prototypename" : "M4L.patcher-summary",
					"text" : "AGC",
					"textcolor" : [ 0.301961, 0.337255, 0.403922, 1.0 ]
				}

			}
, 			{
				"box" : 				{
					"annotation" : "Threshold: Specifies where the unity-point of the compressor should be. i.e. if threshold is -12.00 and you input a -12 signal, the compressor will adjust itself to unity (i.e. no gain change). In the same scenario, if you raise the threshold to -6, the compressor will apply up to 6dB of gain (depending on both the Ratio and Range controls).",
					"id" : "obj-66",
					"maxclass" : "live.dial",
					"numinlets" : 1,
					"numoutlets" : 2,
					"outlettype" : [ "", "float" ],
					"parameter_enable" : 1,
					"patching_rect" : [ 512.0, 136.0, 44.0, 48.0 ],
					"presentation" : 1,
					"presentation_rect" : [ 128.0, 112.0, 44.0, 48.0 ],
					"saved_attribute_attributes" : 					{
						"valueof" : 						{
							"parameter_initial" : [ -10 ],
							"parameter_initial_enable" : 1,
							"parameter_linknames" : 1,
							"parameter_longname" : "Thresh",
							"parameter_mmax" : 0.0,
							"parameter_mmin" : -36.0,
							"parameter_shortname" : "Thresh",
							"parameter_speedlim" : 0.0,
							"parameter_steps" : 37,
							"parameter_type" : 1,
							"parameter_unitstyle" : 4
						}

					}
,
					"varname" : "Thresh"
				}

			}
, 			{
				"box" : 				{
					"annotation" : "Progressive Release: At higher settings, the compressor will release faster at lower gain (= more gain reduction) values. This means that the audio will be more heavily compressed when the input signal is louder. This can create an illusion of dynamics. Especially useful at ratio Infinite:1, which could sound over-compressed without this option. ",
					"id" : "obj-63",
					"maxclass" : "live.dial",
					"numinlets" : 1,
					"numoutlets" : 2,
					"outlettype" : [ "", "float" ],
					"parameter_enable" : 1,
					"patching_rect" : [ 472.0, 136.0, 44.0, 48.0 ],
					"presentation" : 1,
					"presentation_rect" : [ 88.0, 112.0, 44.0, 48.0 ],
					"prototypename" : "amount",
					"saved_attribute_attributes" : 					{
						"valueof" : 						{
							"parameter_initial" : [ 50 ],
							"parameter_initial_enable" : 1,
							"parameter_linknames" : 1,
							"parameter_longname" : "ProgressiveRelease",
							"parameter_mmax" : 100.0,
							"parameter_shortname" : "ProgRel",
							"parameter_speedlim" : 0.0,
							"parameter_steps" : 101,
							"parameter_type" : 1,
							"parameter_unitstyle" : 0
						}

					}
,
					"varname" : "ProgressiveRelease"
				}

			}
, 			{
				"box" : 				{
					"annotation" : "Ratio: Specifies the compression ratio, between 1:1 and Infinite:1.",
					"id" : "obj-57",
					"maxclass" : "live.dial",
					"numinlets" : 1,
					"numoutlets" : 2,
					"outlettype" : [ "", "float" ],
					"parameter_enable" : 1,
					"patching_rect" : [ 432.0, 136.0, 44.0, 48.0 ],
					"presentation" : 1,
					"presentation_rect" : [ 48.0, 112.0, 44.0, 48.0 ],
					"prototypename" : "amount",
					"saved_attribute_attributes" : 					{
						"valueof" : 						{
							"parameter_initial" : [ 100 ],
							"parameter_initial_enable" : 1,
							"parameter_linknames" : 1,
							"parameter_longname" : "Ratio",
							"parameter_mmax" : 100.0,
							"parameter_shortname" : "Ratio",
							"parameter_speedlim" : 0.0,
							"parameter_steps" : 101,
							"parameter_type" : 1,
							"parameter_unitstyle" : 0
						}

					}
,
					"varname" : "Ratio"
				}

			}
, 			{
				"box" : 				{
					"annotation" : "Range: Specifies the maximum amount of gain amplification allowed. The Range setting does not take Ratio into account. Range only applies to gain amplification! If the input audio is above the set threshold, gain reduction will occur no matter what the Range is set to.",
					"id" : "obj-50",
					"maxclass" : "live.dial",
					"numinlets" : 1,
					"numoutlets" : 2,
					"outlettype" : [ "", "float" ],
					"parameter_enable" : 1,
					"patching_rect" : [ 392.0, 136.0, 44.0, 48.0 ],
					"presentation" : 1,
					"presentation_rect" : [ 8.0, 112.0, 44.0, 48.0 ],
					"saved_attribute_attributes" : 					{
						"valueof" : 						{
							"parameter_initial" : [ 20 ],
							"parameter_initial_enable" : 1,
							"parameter_linknames" : 1,
							"parameter_longname" : "Range",
							"parameter_mmax" : 36.0,
							"parameter_shortname" : "Range",
							"parameter_speedlim" : 0.0,
							"parameter_steps" : 37,
							"parameter_type" : 1,
							"parameter_unitstyle" : 4
						}

					}
,
					"varname" : "Range"
				}

			}
, 			{
				"box" : 				{
					"annotation" : "AGC (\"Automatic Gain Control\") on/off",
					"automation" : "Off",
					"automationon" : "On",
					"id" : "obj-47",
					"maxclass" : "live.text",
					"numinlets" : 1,
					"numoutlets" : 2,
					"outlettype" : [ "", "" ],
					"parameter_enable" : 1,
					"patching_rect" : [ 232.0, 168.0, 32.0, 15.0 ],
					"presentation" : 1,
					"presentation_rect" : [ 16.0, 66.0, 32.0, 15.0 ],
					"saved_attribute_attributes" : 					{
						"valueof" : 						{
							"parameter_enum" : [ "Off", "On" ],
							"parameter_initial" : [ 1 ],
							"parameter_initial_enable" : 1,
							"parameter_linknames" : 1,
							"parameter_longname" : "AGC",
							"parameter_mmax" : 1,
							"parameter_shortname" : "AGC",
							"parameter_speedlim" : 0.0,
							"parameter_type" : 2
						}

					}
,
					"text" : "Off",
					"texton" : "On",
					"varname" : "AGC"
				}

			}
, 			{
				"box" : 				{
					"annotation" : "Sidechain Delay: An adjustable Sidechain Delay enables you to emulate vintage \"opto\" compressors by delaying compressor action, thus introducing large peaks at transients. This is very useful for percussion and string instruments.",
					"id" : "obj-46",
					"maxclass" : "live.dial",
					"numinlets" : 1,
					"numoutlets" : 2,
					"outlettype" : [ "", "float" ],
					"parameter_enable" : 1,
					"patching_rect" : [ 352.0, 136.0, 44.0, 48.0 ],
					"presentation" : 1,
					"presentation_rect" : [ 128.0, 48.0, 44.0, 48.0 ],
					"prototypename" : "time",
					"saved_attribute_attributes" : 					{
						"textcolor" : 						{
							"expression" : ""
						}
,
						"valueof" : 						{
							"parameter_initial" : [ 23 ],
							"parameter_initial_enable" : 1,
							"parameter_linknames" : 1,
							"parameter_longname" : "Delay",
							"parameter_mmax" : 100.0,
							"parameter_shortname" : "Delay",
							"parameter_speedlim" : 0.0,
							"parameter_steps" : 101,
							"parameter_type" : 1,
							"parameter_unitstyle" : 2
						}

					}
,
					"textcolor" : [ 0.101961, 0.121569, 0.172549, 1.0 ],
					"varname" : "Delay"
				}

			}
, 			{
				"box" : 				{
					"annotation" : "Release: Signify \"rate\", not \"time\". Higher value = faster. The scale is logarithmic, range 0 - 150.",
					"id" : "obj-35",
					"maxclass" : "live.dial",
					"numinlets" : 1,
					"numoutlets" : 2,
					"outlettype" : [ "", "float" ],
					"parameter_enable" : 1,
					"patching_rect" : [ 312.0, 136.0, 44.0, 48.0 ],
					"presentation" : 1,
					"presentation_rect" : [ 88.0, 48.0, 44.0, 48.0 ],
					"prototypename" : "time",
					"saved_attribute_attributes" : 					{
						"textcolor" : 						{
							"expression" : ""
						}
,
						"valueof" : 						{
							"parameter_initial" : [ 111 ],
							"parameter_initial_enable" : 1,
							"parameter_linknames" : 1,
							"parameter_longname" : "Release",
							"parameter_mmax" : 150.0,
							"parameter_shortname" : "Release",
							"parameter_speedlim" : 0.0,
							"parameter_steps" : 151,
							"parameter_type" : 1,
							"parameter_unitstyle" : 0
						}

					}
,
					"textcolor" : [ 0.101961, 0.121569, 0.172549, 1.0 ],
					"varname" : "Release"
				}

			}
, 			{
				"box" : 				{
					"annotation" : "Attack: Signify \"rate\", not \"time\". Higher value = faster. The scale is logarithmic, range 0 - 150.",
					"id" : "obj-12",
					"maxclass" : "live.dial",
					"numinlets" : 1,
					"numoutlets" : 2,
					"outlettype" : [ "", "float" ],
					"parameter_enable" : 1,
					"patching_rect" : [ 272.0, 136.0, 44.0, 48.0 ],
					"presentation" : 1,
					"presentation_rect" : [ 48.0, 48.0, 44.0, 48.0 ],
					"prototypename" : "time",
					"saved_attribute_attributes" : 					{
						"textcolor" : 						{
							"expression" : ""
						}
,
						"valueof" : 						{
							"parameter_initial" : [ 133 ],
							"parameter_initial_enable" : 1,
							"parameter_linknames" : 1,
							"parameter_longname" : "Attack",
							"parameter_mmax" : 150.0,
							"parameter_shortname" : "Attack",
							"parameter_speedlim" : 0.0,
							"parameter_steps" : 151,
							"parameter_type" : 1,
							"parameter_unitstyle" : 0
						}

					}
,
					"textcolor" : [ 0.101961, 0.121569, 0.172549, 1.0 ],
					"varname" : "Attack"
				}

			}
, 			{
				"box" : 				{
					"fontname" : "Arial Bold",
					"fontsize" : 9.0,
					"id" : "obj-73",
					"maxclass" : "comment",
					"numinlets" : 1,
					"numoutlets" : 0,
					"patching_rect" : [ 162.0, 490.0, 19.0, 17.0 ],
					"presentation" : 1,
					"presentation_rect" : [ 387.0, 56.0, 19.0, 17.0 ],
					"text" : "M",
					"textcolor" : [ 0.396078, 1.0, 0.396078, 1.0 ]
				}

			}
, 			{
				"box" : 				{
					"fontname" : "Arial Bold",
					"fontsize" : 9.0,
					"id" : "obj-72",
					"maxclass" : "comment",
					"numinlets" : 1,
					"numoutlets" : 0,
					"patching_rect" : [ 147.0, 490.0, 19.0, 17.0 ],
					"presentation" : 1,
					"presentation_rect" : [ 372.0, 56.0, 19.0, 17.0 ],
					"text" : "B",
					"textcolor" : [ 0.396078, 1.0, 0.396078, 1.0 ]
				}

			}
, 			{
				"box" : 				{
					"bgcolor" : [ 0.101961, 0.121569, 0.172549, 1.0 ],
					"id" : "obj-60",
					"ignoreclick" : 1,
					"maxclass" : "multislider",
					"numinlets" : 1,
					"numoutlets" : 2,
					"outlettype" : [ "", "" ],
					"parameter_enable" : 0,
					"patching_rect" : [ 146.0, 504.0, 32.0, 37.0 ],
					"presentation" : 1,
					"presentation_rect" : [ 371.0, 72.0, 32.0, 80.0 ],
					"setminmax" : [ 0.0, 250.0 ],
					"setstyle" : 1,
					"size" : 2,
					"slidercolor" : [ 0.396078, 1.0, 0.396078, 1.0 ],
					"spacing" : 4,
					"thickness" : 1
				}

			}
, 			{
				"box" : 				{
					"fontname" : "Arial",
					"fontsize" : 10.0,
					"id" : "obj-59",
					"maxclass" : "comment",
					"numinlets" : 1,
					"numoutlets" : 0,
					"patching_rect" : [ 416.0, 224.0, 78.0, 18.0 ],
					"presentation" : 1,
					"presentation_rect" : [ 178.0, 120.0, 78.0, 18.0 ],
					"text" : "Limit. response"
				}

			}
, 			{
				"box" : 				{
					"fontname" : "Arial",
					"fontsize" : 10.0,
					"id" : "obj-58",
					"maxclass" : "comment",
					"numinlets" : 1,
					"numoutlets" : 0,
					"patching_rect" : [ 188.0, 176.0, 32.0, 18.0 ],
					"presentation" : 1,
					"presentation_rect" : [ 423.0, 8.0, 32.0, 18.0 ],
					"text" : "Rate"
				}

			}
, 			{
				"box" : 				{
					"annotation" : "Rate of output metering in milliseconds",
					"appearance" : 1,
					"id" : "obj-56",
					"maxclass" : "live.numbox",
					"numinlets" : 1,
					"numoutlets" : 2,
					"outlettype" : [ "", "float" ],
					"parameter_enable" : 1,
					"patching_rect" : [ 168.0, 192.0, 48.0, 15.0 ],
					"presentation" : 1,
					"presentation_rect" : [ 453.0, 8.0, 48.0, 15.0 ],
					"saved_attribute_attributes" : 					{
						"valueof" : 						{
							"parameter_initial" : [ 25 ],
							"parameter_initial_enable" : 1,
							"parameter_linknames" : 1,
							"parameter_longname" : "MetersRate",
							"parameter_mmax" : 250.0,
							"parameter_shortname" : "MetersRate",
							"parameter_speedlim" : 0.0,
							"parameter_steps" : 51,
							"parameter_type" : 0,
							"parameter_unitstyle" : 2
						}

					}
,
					"varname" : "MetersRate"
				}

			}
, 			{
				"box" : 				{
					"activebgoncolor" : [ 0.956863, 0.431373, 0.0, 1.0 ],
					"annotation" : "Bypass compressor",
					"automation" : "No bypass",
					"automationon" : "Bypass",
					"id" : "obj-54",
					"maxclass" : "live.text",
					"numinlets" : 1,
					"numoutlets" : 2,
					"outlettype" : [ "", "" ],
					"parameter_enable" : 1,
					"patching_rect" : [ 120.0, 144.0, 40.0, 16.0 ],
					"presentation" : 1,
					"presentation_rect" : [ 16.0, 8.0, 40.0, 15.0 ],
					"saved_attribute_attributes" : 					{
						"activebgoncolor" : 						{
							"expression" : ""
						}
,
						"valueof" : 						{
							"parameter_enum" : [ "No bypass", "Bypass" ],
							"parameter_initial" : [ 0.0 ],
							"parameter_initial_enable" : 1,
							"parameter_linknames" : 1,
							"parameter_longname" : "Bypass",
							"parameter_mmax" : 1,
							"parameter_shortname" : "Bypass",
							"parameter_speedlim" : 0.0,
							"parameter_type" : 2
						}

					}
,
					"text" : "Bypass",
					"texton" : "Bypass",
					"varname" : "Bypass"
				}

			}
, 			{
				"box" : 				{
					"annotation" : "Limiter Response: Punchy Response yields extremely short attack and release times, useful for transparent limiting, or to create loudness. However, if over-used, intermodulation distortion may result. Smooth uses longer attack and release times - still a fast look-ahead limiter, but much less intermodulation distortion. However, the resulting sound isn't as punchy as with Punchy Response.",
					"id" : "obj-53",
					"maxclass" : "live.menu",
					"numinlets" : 1,
					"numoutlets" : 3,
					"outlettype" : [ "", "", "float" ],
					"parameter_enable" : 1,
					"patching_rect" : [ 424.0, 240.0, 56.0, 15.0 ],
					"presentation" : 1,
					"presentation_rect" : [ 187.0, 136.0, 56.0, 15.0 ],
					"saved_attribute_attributes" : 					{
						"valueof" : 						{
							"parameter_enum" : [ "punchy", "smooth" ],
							"parameter_initial" : [ 0 ],
							"parameter_initial_enable" : 1,
							"parameter_linknames" : 1,
							"parameter_longname" : "Mode",
							"parameter_mmax" : 1,
							"parameter_shortname" : "Mode",
							"parameter_speedlim" : 0.0,
							"parameter_type" : 2
						}

					}
,
					"varname" : "Mode"
				}

			}
, 			{
				"box" : 				{
					"annotation" : "Output metering on/off",
					"automation" : "Off",
					"automationon" : "On",
					"id" : "obj-44",
					"maxclass" : "live.text",
					"numinlets" : 1,
					"numoutlets" : 2,
					"outlettype" : [ "", "" ],
					"parameter_enable" : 1,
					"patching_rect" : [ 144.0, 168.0, 40.0, 16.0 ],
					"presentation" : 1,
					"presentation_rect" : [ 367.0, 8.0, 48.0, 15.0 ],
					"saved_attribute_attributes" : 					{
						"valueof" : 						{
							"parameter_enum" : [ "Off", "On" ],
							"parameter_initial" : [ 0.0 ],
							"parameter_initial_enable" : 1,
							"parameter_linknames" : 1,
							"parameter_longname" : "Meters",
							"parameter_mmax" : 1,
							"parameter_shortname" : "Meters",
							"parameter_speedlim" : 0.0,
							"parameter_type" : 2
						}

					}
,
					"text" : "Meters",
					"texton" : "Meters",
					"varname" : "Meters"
				}

			}
, 			{
				"box" : 				{
					"fontname" : "Arial Bold",
					"fontsize" : 10.0,
					"id" : "obj-4",
					"maxclass" : "newobj",
					"numinlets" : 2,
					"numoutlets" : 4,
					"outlettype" : [ "signal", "signal", "list", "list" ],
					"patching_rect" : [ 56.0, 384.0, 66.0, 20.0 ],
					"text" : "omx.comp~"
				}

			}
, 			{
				"box" : 				{
					"fontname" : "Arial Bold Italic",
					"fontsize" : 10.0,
					"id" : "obj-25",
					"maxclass" : "comment",
					"numinlets" : 1,
					"numoutlets" : 0,
					"patching_rect" : [ 111.0, 536.0, 17.0, 18.0 ],
					"text" : "R",
					"textcolor" : [ 0.3, 0.34, 0.4, 1.0 ]
				}

			}
, 			{
				"box" : 				{
					"fontname" : "Arial Bold Italic",
					"fontsize" : 10.0,
					"id" : "obj-26",
					"maxclass" : "comment",
					"numinlets" : 1,
					"numoutlets" : 0,
					"patching_rect" : [ 38.0, 536.0, 17.0, 18.0 ],
					"text" : "L",
					"textcolor" : [ 0.3, 0.34, 0.4, 1.0 ]
				}

			}
, 			{
				"box" : 				{
					"fontname" : "Arial Bold Italic",
					"fontsize" : 10.0,
					"id" : "obj-24",
					"maxclass" : "comment",
					"numinlets" : 1,
					"numoutlets" : 0,
					"patching_rect" : [ 123.0, 312.0, 17.0, 18.0 ],
					"text" : "R",
					"textcolor" : [ 0.3, 0.34, 0.4, 1.0 ]
				}

			}
, 			{
				"box" : 				{
					"fontname" : "Arial Bold Italic",
					"fontsize" : 10.0,
					"id" : "obj-22",
					"maxclass" : "comment",
					"numinlets" : 1,
					"numoutlets" : 0,
					"patching_rect" : [ 38.0, 311.0, 17.0, 18.0 ],
					"text" : "L",
					"textcolor" : [ 0.3, 0.34, 0.4, 1.0 ]
				}

			}
, 			{
				"box" : 				{
					"fontname" : "Arial Bold Italic",
					"fontsize" : 11.0,
					"id" : "obj-7",
					"maxclass" : "comment",
					"numinlets" : 1,
					"numoutlets" : 0,
					"patching_rect" : [ 46.0, 555.0, 81.0, 19.0 ],
					"text" : "Audio to Live",
					"textcolor" : [ 0.3, 0.34, 0.4, 1.0 ]
				}

			}
, 			{
				"box" : 				{
					"fontname" : "Arial Bold Italic",
					"fontsize" : 11.0,
					"id" : "obj-6",
					"maxclass" : "comment",
					"numinlets" : 1,
					"numoutlets" : 0,
					"patching_rect" : [ 44.0, 291.0, 96.0, 19.0 ],
					"text" : "Audio from Live",
					"textcolor" : [ 0.3, 0.34, 0.4, 1.0 ]
				}

			}
, 			{
				"box" : 				{
					"fontname" : "Arial Bold",
					"fontsize" : 10.0,
					"id" : "obj-2",
					"maxclass" : "newobj",
					"numinlets" : 2,
					"numoutlets" : 2,
					"outlettype" : [ "signal", "signal" ],
					"patching_rect" : [ 56.0, 536.0, 54.0, 20.0 ],
					"text" : "plugout~"
				}

			}
, 			{
				"box" : 				{
					"fontname" : "Arial Bold",
					"fontsize" : 10.0,
					"id" : "obj-1",
					"maxclass" : "newobj",
					"numinlets" : 2,
					"numoutlets" : 2,
					"outlettype" : [ "signal", "signal" ],
					"patching_rect" : [ 56.0, 312.0, 66.0, 20.0 ],
					"text" : "plugin~"
				}

			}
, 			{
				"box" : 				{
					"id" : "obj-3",
					"maxclass" : "live.toolbar",
					"numinlets" : 0,
					"numoutlets" : 0,
					"patching_rect" : [ 0.0, 637.0, 265.0, 50.0 ],
					"presentation" : 1,
					"presentation_rect" : [ 0.0, 637.0, 265.0, 50.0 ]
				}

			}
, 			{
				"box" : 				{
					"angle" : 0.0,
					"bgcolor" : [ 0.101961, 0.121569, 0.172549, 1.0 ],
					"id" : "obj-70",
					"maxclass" : "panel",
					"mode" : 0,
					"numinlets" : 1,
					"numoutlets" : 0,
					"patching_rect" : [ 142.0, 490.0, 40.0, 56.0 ],
					"presentation" : 1,
					"presentation_rect" : [ 367.0, 56.0, 40.0, 104.0 ],
					"prototypename" : "M4L.horiz.black",
					"rounded" : 16
				}

			}
, 			{
				"box" : 				{
					"fontname" : "Arial Bold",
					"fontsize" : 10.0,
					"id" : "obj-93",
					"maxclass" : "message",
					"numinlets" : 2,
					"numoutlets" : 1,
					"outlettype" : [ "" ],
					"patching_rect" : [ 328.0, 499.0, 34.0, 20.0 ],
					"text" : "open"
				}

			}
, 			{
				"box" : 				{
					"fontname" : "Arial Bold",
					"fontsize" : 10.0,
					"id" : "obj-112",
					"maxclass" : "message",
					"numinlets" : 2,
					"numoutlets" : 1,
					"outlettype" : [ "" ],
					"patching_rect" : [ 448.0, 520.0, 34.0, 20.0 ],
					"text" : "open"
				}

			}
, 			{
				"box" : 				{
					"id" : "obj-116",
					"justification" : 1,
					"linecolor" : [ 0.301961, 0.337255, 0.403922, 1.0 ],
					"maxclass" : "live.line",
					"numinlets" : 1,
					"numoutlets" : 0,
					"patching_rect" : [ 328.0, 456.0, 72.0, 8.0 ],
					"presentation" : 1,
					"presentation_rect" : [ 347.0, 8.0, 16.0, 152.0 ],
					"prototypename" : "M4L.live.line.dark.H",
					"saved_attribute_attributes" : 					{
						"linecolor" : 						{
							"expression" : ""
						}

					}

				}

			}
 ],
		"lines" : [ 			{
				"patchline" : 				{
					"destination" : [ "obj-4", 1 ],
					"source" : [ "obj-1", 1 ]
				}

			}
, 			{
				"patchline" : 				{
					"destination" : [ "obj-4", 0 ],
					"source" : [ "obj-1", 0 ]
				}

			}
, 			{
				"patchline" : 				{
					"destination" : [ "obj-105", 0 ],
					"source" : [ "obj-102", 0 ]
				}

			}
, 			{
				"patchline" : 				{
					"color" : [ 0.854902, 1.0, 0.513726, 0.396078 ],
					"destination" : [ "obj-105", 0 ],
					"hidden" : 1,
					"order" : 0,
					"source" : [ "obj-108", 2 ]
				}

			}
, 			{
				"patchline" : 				{
					"color" : [ 0.854902, 1.0, 0.513726, 0.396078 ],
					"destination" : [ "obj-19", 0 ],
					"hidden" : 1,
					"order" : 6,
					"source" : [ "obj-108", 2 ]
				}

			}
, 			{
				"patchline" : 				{
					"color" : [ 0.854902, 1.0, 0.513726, 0.396078 ],
					"destination" : [ "obj-44", 0 ],
					"hidden" : 1,
					"order" : 4,
					"source" : [ "obj-108", 2 ]
				}

			}
, 			{
				"patchline" : 				{
					"color" : [ 0.854902, 1.0, 0.513726, 0.396078 ],
					"destination" : [ "obj-54", 0 ],
					"hidden" : 1,
					"order" : 5,
					"source" : [ "obj-108", 2 ]
				}

			}
, 			{
				"patchline" : 				{
					"color" : [ 0.854902, 1.0, 0.513726, 0.396078 ],
					"destination" : [ "obj-56", 0 ],
					"hidden" : 1,
					"order" : 2,
					"source" : [ "obj-108", 2 ]
				}

			}
, 			{
				"patchline" : 				{
					"color" : [ 0.854902, 1.0, 0.513726, 0.396078 ],
					"destination" : [ "obj-60", 0 ],
					"hidden" : 1,
					"order" : 3,
					"source" : [ "obj-108", 2 ]
				}

			}
, 			{
				"patchline" : 				{
					"color" : [ 0.854902, 1.0, 0.513726, 0.396078 ],
					"destination" : [ "obj-99", 0 ],
					"hidden" : 1,
					"order" : 1,
					"source" : [ "obj-108", 2 ]
				}

			}
, 			{
				"patchline" : 				{
					"destination" : [ "obj-9", 0 ],
					"hidden" : 1,
					"source" : [ "obj-11", 1 ]
				}

			}
, 			{
				"patchline" : 				{
					"destination" : [ "obj-111", 0 ],
					"source" : [ "obj-112", 0 ]
				}

			}
, 			{
				"patchline" : 				{
					"color" : [ 0.568627, 0.619608, 0.662745, 1.0 ],
					"destination" : [ "obj-12", 0 ],
					"order" : 6,
					"source" : [ "obj-119", 1 ]
				}

			}
, 			{
				"patchline" : 				{
					"color" : [ 0.568627, 0.619608, 0.662745, 1.0 ],
					"destination" : [ "obj-35", 0 ],
					"order" : 5,
					"source" : [ "obj-119", 1 ]
				}

			}
, 			{
				"patchline" : 				{
					"destination" : [ "obj-4", 0 ],
					"source" : [ "obj-119", 0 ]
				}

			}
, 			{
				"patchline" : 				{
					"color" : [ 0.568627, 0.619608, 0.662745, 1.0 ],
					"destination" : [ "obj-46", 0 ],
					"order" : 4,
					"source" : [ "obj-119", 1 ]
				}

			}
, 			{
				"patchline" : 				{
					"color" : [ 0.568627, 0.619608, 0.662745, 1.0 ],
					"destination" : [ "obj-50", 0 ],
					"order" : 3,
					"source" : [ "obj-119", 1 ]
				}

			}
, 			{
				"patchline" : 				{
					"color" : [ 0.568627, 0.619608, 0.662745, 1.0 ],
					"destination" : [ "obj-57", 0 ],
					"order" : 2,
					"source" : [ "obj-119", 1 ]
				}

			}
, 			{
				"patchline" : 				{
					"color" : [ 0.568627, 0.619608, 0.662745, 1.0 ],
					"destination" : [ "obj-63", 0 ],
					"order" : 1,
					"source" : [ "obj-119", 1 ]
				}

			}
, 			{
				"patchline" : 				{
					"color" : [ 0.568627, 0.619608, 0.662745, 1.0 ],
					"destination" : [ "obj-66", 0 ],
					"order" : 0,
					"source" : [ "obj-119", 1 ]
				}

			}
, 			{
				"patchline" : 				{
					"destination" : [ "obj-119", 1 ],
					"source" : [ "obj-12", 0 ]
				}

			}
, 			{
				"patchline" : 				{
					"color" : [ 0.568627, 0.619608, 0.662745, 1.0 ],
					"destination" : [ "obj-105", 0 ],
					"order" : 0,
					"source" : [ "obj-120", 1 ]
				}

			}
, 			{
				"patchline" : 				{
					"destination" : [ "obj-4", 0 ],
					"source" : [ "obj-120", 0 ]
				}

			}
, 			{
				"patchline" : 				{
					"color" : [ 0.568627, 0.619608, 0.662745, 1.0 ],
					"destination" : [ "obj-60", 0 ],
					"order" : 2,
					"source" : [ "obj-120", 1 ]
				}

			}
, 			{
				"patchline" : 				{
					"color" : [ 0.568627, 0.619608, 0.662745, 1.0 ],
					"destination" : [ "obj-99", 0 ],
					"order" : 1,
					"source" : [ "obj-120", 1 ]
				}

			}
, 			{
				"patchline" : 				{
					"destination" : [ "obj-4", 0 ],
					"source" : [ "obj-121", 0 ]
				}

			}
, 			{
				"patchline" : 				{
					"color" : [ 0.568627, 0.619608, 0.662745, 1.0 ],
					"destination" : [ "obj-53", 0 ],
					"source" : [ "obj-121", 1 ]
				}

			}
, 			{
				"patchline" : 				{
					"destination" : [ "obj-4", 0 ],
					"source" : [ "obj-123", 0 ]
				}

			}
, 			{
				"patchline" : 				{
					"color" : [ 0.568627, 0.619608, 0.662745, 1.0 ],
					"destination" : [ "obj-81", 0 ],
					"source" : [ "obj-123", 1 ]
				}

			}
, 			{
				"patchline" : 				{
					"destination" : [ "obj-10", 0 ],
					"source" : [ "obj-13", 0 ]
				}

			}
, 			{
				"patchline" : 				{
					"destination" : [ "obj-121", 1 ],
					"source" : [ "obj-17", 0 ]
				}

			}
, 			{
				"patchline" : 				{
					"destination" : [ "obj-2", 1 ],
					"source" : [ "obj-19", 1 ]
				}

			}
, 			{
				"patchline" : 				{
					"destination" : [ "obj-2", 0 ],
					"source" : [ "obj-19", 0 ]
				}

			}
, 			{
				"patchline" : 				{
					"destination" : [ "obj-108", 0 ],
					"source" : [ "obj-23", 0 ]
				}

			}
, 			{
				"patchline" : 				{
					"destination" : [ "obj-121", 2 ],
					"source" : [ "obj-31", 0 ]
				}

			}
, 			{
				"patchline" : 				{
					"destination" : [ "obj-119", 2 ],
					"source" : [ "obj-35", 0 ]
				}

			}
, 			{
				"patchline" : 				{
					"destination" : [ "obj-102", 0 ],
					"order" : 0,
					"source" : [ "obj-4", 3 ]
				}

			}
, 			{
				"patchline" : 				{
					"destination" : [ "obj-19", 1 ],
					"source" : [ "obj-4", 1 ]
				}

			}
, 			{
				"patchline" : 				{
					"destination" : [ "obj-19", 0 ],
					"source" : [ "obj-4", 0 ]
				}

			}
, 			{
				"patchline" : 				{
					"destination" : [ "obj-95", 0 ],
					"order" : 2,
					"source" : [ "obj-4", 3 ]
				}

			}
, 			{
				"patchline" : 				{
					"destination" : [ "obj-96", 0 ],
					"order" : 1,
					"source" : [ "obj-4", 3 ]
				}

			}
, 			{
				"patchline" : 				{
					"destination" : [ "obj-120", 1 ],
					"source" : [ "obj-44", 0 ]
				}

			}
, 			{
				"patchline" : 				{
					"destination" : [ "obj-119", 3 ],
					"source" : [ "obj-46", 0 ]
				}

			}
, 			{
				"patchline" : 				{
					"destination" : [ "obj-119", 0 ],
					"source" : [ "obj-47", 0 ]
				}

			}
, 			{
				"patchline" : 				{
					"destination" : [ "obj-119", 4 ],
					"source" : [ "obj-50", 0 ]
				}

			}
, 			{
				"patchline" : 				{
					"destination" : [ "obj-121", 3 ],
					"source" : [ "obj-53", 0 ]
				}

			}
, 			{
				"patchline" : 				{
					"destination" : [ "obj-120", 0 ],
					"source" : [ "obj-54", 0 ]
				}

			}
, 			{
				"patchline" : 				{
					"destination" : [ "obj-120", 2 ],
					"source" : [ "obj-56", 0 ]
				}

			}
, 			{
				"patchline" : 				{
					"destination" : [ "obj-119", 5 ],
					"source" : [ "obj-57", 0 ]
				}

			}
, 			{
				"patchline" : 				{
					"destination" : [ "obj-119", 6 ],
					"source" : [ "obj-63", 0 ]
				}

			}
, 			{
				"patchline" : 				{
					"destination" : [ "obj-119", 7 ],
					"source" : [ "obj-66", 0 ]
				}

			}
, 			{
				"patchline" : 				{
					"destination" : [ "obj-123", 3 ],
					"source" : [ "obj-67", 0 ]
				}

			}
, 			{
				"patchline" : 				{
					"destination" : [ "obj-123", 0 ],
					"source" : [ "obj-74", 0 ]
				}

			}
, 			{
				"patchline" : 				{
					"destination" : [ "obj-123", 1 ],
					"source" : [ "obj-77", 0 ]
				}

			}
, 			{
				"patchline" : 				{
					"destination" : [ "obj-121", 0 ],
					"source" : [ "obj-8", 0 ]
				}

			}
, 			{
				"patchline" : 				{
					"destination" : [ "obj-123", 2 ],
					"source" : [ "obj-81", 0 ]
				}

			}
, 			{
				"patchline" : 				{
					"destination" : [ "obj-123", 4 ],
					"source" : [ "obj-84", 0 ]
				}

			}
, 			{
				"patchline" : 				{
					"destination" : [ "obj-123", 5 ],
					"source" : [ "obj-88", 0 ]
				}

			}
, 			{
				"patchline" : 				{
					"destination" : [ "obj-16", 0 ],
					"hidden" : 1,
					"source" : [ "obj-9", 0 ]
				}

			}
, 			{
				"patchline" : 				{
					"destination" : [ "obj-13", 0 ],
					"source" : [ "obj-93", 0 ]
				}

			}
, 			{
				"patchline" : 				{
					"destination" : [ "obj-60", 0 ],
					"source" : [ "obj-95", 0 ]
				}

			}
, 			{
				"patchline" : 				{
					"destination" : [ "obj-99", 0 ],
					"source" : [ "obj-96", 0 ]
				}

			}
 ],
		"parameters" : 		{
			"obj-12" : [ "Attack", "Attack", 0 ],
			"obj-17" : [ "SideChainFilter", "SideChainFilter", 0 ],
			"obj-19" : [ "Gain", "Gain", 0 ],
			"obj-31" : [ "Limiter", "Limiter", 0 ],
			"obj-35" : [ "Release", "Release", 0 ],
			"obj-44" : [ "Meters", "Meters", 0 ],
			"obj-46" : [ "Delay", "Delay", 0 ],
			"obj-47" : [ "AGC", "AGC", 0 ],
			"obj-50" : [ "Range", "Range", 0 ],
			"obj-53" : [ "Mode", "Mode", 0 ],
			"obj-54" : [ "Bypass", "Bypass", 0 ],
			"obj-56" : [ "MetersRate", "MetersRate", 0 ],
			"obj-57" : [ "Ratio", "Ratio", 0 ],
			"obj-63" : [ "ProgressiveRelease", "ProgRel", 0 ],
			"obj-66" : [ "Thresh", "Thresh", 0 ],
			"obj-67" : [ "SmoothGain", "Smooth", 0 ],
			"obj-74" : [ "ChannelCoupling", "ChannelCoupling", 0 ],
			"obj-77" : [ "DownExpandEnable", "Enable", 0 ],
			"obj-8" : [ "DualBand", "DualBand", 0 ],
			"obj-81" : [ "DownExpandThresh", "Thresh", 0 ],
			"obj-84" : [ "LevelDetectGating", "Gating", 0 ],
			"obj-88" : [ "LevelDetectFreeze", "Freeze", 0 ],
			"parameterbanks" : 			{
				"0" : 				{
					"index" : 0,
					"name" : "",
					"parameters" : [ "-", "-", "-", "-", "-", "-", "-", "-" ]
				}

			}
,
			"inherited_shortname" : 1
		}
,
		"dependency_cache" : [  ],
		"autosave" : 0
	}

}
